<svg width="48" height="40" viewBox="0 0 48 40" fill="none" xmlns="http://www.w3.org/2000/svg">
<path d="M29 8.58193C20.2685 21.2343 23.6987 30.5995 26.5053 33.7006C15.2788 24.7695 19.3331 9.51225 22.7635 3C26.0066 4.24043 28.2725 7.23813 29 8.58193Z" fill="#6244FF"/>
<path d="M9.04334 17.8851C12.2865 30.2894 21.8284 34.8377 26.194 35.5612C11.9738 38.5383 2.80623 25.6378 0 18.8155C4.73996 17.0789 8.00388 17.4717 9.04334 17.8851Z" fill="#6244FF"/>
<path d="M36.3867 32.3711C36.6159 32.4427 36.8451 32.4928 37.0742 32.5215C37.3034 32.5358 37.5326 32.543 37.7617 32.543C38.3346 32.543 38.8861 32.4642 39.416 32.3066C39.946 32.1491 40.4401 31.9271 40.8984 31.6406C41.3711 31.3398 41.7865 30.9818 42.1445 30.5664C42.5169 30.1367 42.8177 29.6641 43.0469 29.1484L47.3438 33.4668C46.7995 34.2402 46.1693 34.9349 45.4531 35.5508C44.7513 36.1667 43.985 36.6895 43.1543 37.1191C42.3379 37.5488 41.4714 37.8711 40.5547 38.0859C39.6523 38.3151 38.7214 38.4297 37.7617 38.4297C36.1432 38.4297 34.6178 38.1289 33.1855 37.5273C31.7676 36.9258 30.5215 36.0879 29.4473 35.0137C28.3874 33.9395 27.5495 32.6647 26.9336 31.1895C26.3177 29.6999 26.0098 28.0671 26.0098 26.291C26.0098 24.472 26.3177 22.8105 26.9336 21.3066C27.5495 19.8027 28.3874 18.5208 29.4473 17.4609C30.5215 16.401 31.7676 15.5775 33.1855 14.9902C34.6178 14.403 36.1432 14.1094 37.7617 14.1094C38.7214 14.1094 39.6595 14.224 40.5762 14.4531C41.4928 14.6823 42.3594 15.0117 43.1758 15.4414C44.0065 15.8711 44.7799 16.401 45.4961 17.0312C46.2122 17.6471 46.8424 18.3418 47.3867 19.1152L36.3867 32.3711ZM39.3945 20.2754C39.1224 20.1751 38.8503 20.1107 38.5781 20.082C38.3203 20.0534 38.0482 20.0391 37.7617 20.0391C36.9596 20.0391 36.2005 20.1895 35.4844 20.4902C34.7826 20.7767 34.1667 21.1921 33.6367 21.7363C33.1211 22.2806 32.7129 22.9395 32.4121 23.7129C32.1113 24.472 31.9609 25.3314 31.9609 26.291C31.9609 26.5059 31.9681 26.7493 31.9824 27.0215C32.0111 27.2936 32.0469 27.5729 32.0898 27.8594C32.1471 28.1315 32.2116 28.3965 32.2832 28.6543C32.3548 28.9121 32.4479 29.1413 32.5625 29.3418L39.3945 20.2754Z" fill="#26273B"/>
<path d="M17.7408 11.4112C15.745 25.5521 22.1065 32.6018 25.5368 34.3591C11.8153 31.134 8.80157 15.4426 9.00986 8C13.9993 8.49617 16.9094 10.4809 17.7408 11.4112Z" fill="#FFAE2D"/>
</svg>
