<svg width="98" height="98" viewBox="0 0 98 98" fill="none" xmlns="http://www.w3.org/2000/svg">
<g filter="url(#filter0_d_436_10457)">
<rect x="25" y="21" width="48" height="48" rx="24" fill="#5765F2" shape-rendering="crispEdges"/>
<path d="M61.5944 43.3698C61.3864 43.2372 59.7458 42.257 59.0958 41.958L58.2898 40.008C58.529 39.3632 58.9892 37.5562 59.0698 37.2416C59.1021 37.0984 59.0975 36.9494 59.0566 36.8085C59.0157 36.6675 58.9397 36.5392 58.8358 36.4356L57.5644 35.172C57.461 35.0676 57.3328 34.9914 57.1917 34.9504C57.0507 34.9095 56.9015 34.9052 56.7584 34.938C56.5192 34.9926 54.6784 35.458 53.992 35.718L52.042 34.912C51.7586 34.288 50.8044 32.689 50.6302 32.4134C50.5532 32.2873 50.4451 32.183 50.3163 32.1106C50.1874 32.0383 50.0422 32.0002 49.8944 32H48.1056C47.9587 32.0001 47.8142 32.0373 47.6855 32.1082C47.5569 32.1791 47.4483 32.2814 47.3698 32.4056C47.2372 32.6136 46.257 34.2542 45.958 34.9042L44.008 35.7102C43.3632 35.471 41.5562 35.0108 41.2416 34.9302C41.0984 34.8979 40.9494 34.9024 40.8084 34.9434C40.6675 34.9843 40.5392 35.0603 40.4356 35.1642L39.172 36.4356C39.0676 36.5389 38.9914 36.6672 38.9504 36.8082C38.9095 36.9493 38.9052 37.0984 38.938 37.2416C38.9926 37.4808 39.458 39.3216 39.718 40.008L38.912 41.958C38.288 42.2414 36.689 43.1956 36.4134 43.3698C36.2873 43.4468 36.183 43.5549 36.1106 43.6837C36.0383 43.8126 36.0002 43.9578 36 44.1056V45.8918C36.0001 46.0387 36.0373 46.1832 36.1082 46.3118C36.1791 46.4405 36.2814 46.5491 36.4056 46.6276C36.6136 46.7602 38.2542 47.7404 38.9042 48.0394L39.7102 49.9894C39.471 50.6342 39.0108 52.4412 38.9302 52.7558C38.8979 52.899 38.9024 53.048 38.9434 53.1889C38.9843 53.3299 39.0603 53.4582 39.1642 53.5618L40.4278 54.8254C40.5311 54.9297 40.6594 55.006 40.8004 55.0469C40.9415 55.0879 41.0906 55.0922 41.2338 55.0594C41.473 55.0048 43.3138 54.5394 44.0002 54.2794L45.9502 55.0854C46.2336 55.7094 47.1878 57.3084 47.362 57.584C47.4394 57.7117 47.5485 57.8172 47.6789 57.8901C47.8092 57.963 47.9562 58.0009 48.1056 58H49.8918C50.0387 57.9999 50.1832 57.9627 50.3118 57.8918C50.4405 57.8209 50.5491 57.7186 50.6276 57.5944C50.7602 57.3864 51.7404 55.7458 52.0394 55.0958L53.9894 54.2898C54.6342 54.529 56.4412 54.9892 56.7558 55.0698C56.899 55.1021 57.048 55.0975 57.1889 55.0566C57.3299 55.0157 57.4582 54.9397 57.5618 54.8358L58.8254 53.5722C58.9297 53.4688 59.006 53.3406 59.0469 53.1995C59.0879 53.0585 59.0922 52.9093 59.0594 52.7662C59.0048 52.527 58.5394 50.6862 58.2794 49.9998L59.0854 48.0498C59.7094 47.7664 61.3084 46.8122 61.584 46.638C61.7117 46.5606 61.8172 46.4514 61.8901 46.3211C61.963 46.1908 62.0009 46.0437 62 45.8944V44.1056C62.0011 43.9585 61.9644 43.8135 61.8934 43.6846C61.8224 43.5558 61.7194 43.4474 61.5944 43.3698ZM49 50.6602C47.8795 50.6592 46.7844 50.3259 45.8533 49.7025C44.9222 49.0791 44.1969 48.1937 43.7691 47.158C43.3412 46.1224 43.2301 44.9832 43.4497 43.8844C43.6693 42.7857 44.2098 41.7767 45.0028 40.9851C45.7959 40.1935 46.8058 39.6548 47.905 39.4372C49.0042 39.2197 50.1432 39.3329 51.178 39.7626C52.2129 40.1924 53.097 40.9194 53.7187 41.8516C54.3403 42.7838 54.6716 43.8795 54.6706 45C54.6671 46.5019 54.0683 47.9412 53.0053 49.0022C51.9423 50.0633 50.5019 50.6595 49 50.6602Z" fill="white"/>
</g>
<defs>
<filter id="filter0_d_436_10457" x="0" y="0" width="98" height="98" filterUnits="userSpaceOnUse" color-interpolation-filters="sRGB">
<feFlood flood-opacity="0" result="BackgroundImageFix"/>
<feColorMatrix in="SourceAlpha" type="matrix" values="0 0 0 0 0 0 0 0 0 0 0 0 0 0 0 0 0 0 127 0" result="hardAlpha"/>
<feOffset dy="4"/>
<feGaussianBlur stdDeviation="12.5"/>
<feComposite in2="hardAlpha" operator="out"/>
<feColorMatrix type="matrix" values="0 0 0 0 0.526604 0 0 0 0 0.483567 0 0 0 0 1 0 0 0 0.22 0"/>
<feBlend mode="normal" in2="BackgroundImageFix" result="effect1_dropShadow_436_10457"/>
<feBlend mode="normal" in="SourceGraphic" in2="effect1_dropShadow_436_10457" result="shape"/>
</filter>
</defs>
</svg>
