<svg width="98" height="98" viewBox="0 0 98 98" fill="none" xmlns="http://www.w3.org/2000/svg">
<g filter="url(#filter0_d_436_10432)">
<rect x="25" y="21" width="48" height="48" rx="24" fill="#5765F2" shape-rendering="crispEdges"/>
<path d="M48.1288 35.536V39.3829C48.1288 40.208 47.4446 40.8798 46.6042 40.8798H40.0746C39.2342 40.8798 38.55 40.208 38.55 39.3829V35.536C38.55 34.7108 39.2342 34.0391 40.0746 34.0391H46.6042C47.4446 34.0391 48.1288 34.7108 48.1288 35.536Z" fill="white"/>
<path d="M46.6053 42.5898H40.074C39.2327 42.5898 38.55 43.26 38.55 44.0861V53.0636C38.55 53.8896 39.2327 54.5598 40.074 54.5598H46.6053C47.4466 54.5598 48.1292 53.8896 48.1292 53.0636V44.0861C48.1292 43.26 47.4466 42.5898 46.6053 42.5898Z" fill="white"/>
<path d="M59.45 49.2156V53.0626C59.45 53.8877 58.7658 54.5595 57.9254 54.5595H51.3958C50.5554 54.5595 49.8712 53.8877 49.8712 53.0626V49.2156C49.8712 48.3905 50.5554 47.7188 51.3958 47.7188H57.9254C58.7658 47.7188 59.45 48.3905 59.45 49.2156Z" fill="white"/>
<path d="M57.9261 34.0391H51.3948C50.5535 34.0391 49.8708 34.7093 49.8708 35.5353V44.5128C49.8708 45.3389 50.5535 46.0091 51.3948 46.0091H57.9261C58.7674 46.0091 59.45 45.3389 59.45 44.5128V35.5353C59.45 34.7093 58.7674 34.0391 57.9261 34.0391Z" fill="white"/>
</g>
<defs>
<filter id="filter0_d_436_10432" x="0" y="0" width="98" height="98" filterUnits="userSpaceOnUse" color-interpolation-filters="sRGB">
<feFlood flood-opacity="0" result="BackgroundImageFix"/>
<feColorMatrix in="SourceAlpha" type="matrix" values="0 0 0 0 0 0 0 0 0 0 0 0 0 0 0 0 0 0 127 0" result="hardAlpha"/>
<feOffset dy="4"/>
<feGaussianBlur stdDeviation="12.5"/>
<feComposite in2="hardAlpha" operator="out"/>
<feColorMatrix type="matrix" values="0 0 0 0 0.526604 0 0 0 0 0.483567 0 0 0 0 1 0 0 0 0.22 0"/>
<feBlend mode="normal" in2="BackgroundImageFix" result="effect1_dropShadow_436_10432"/>
<feBlend mode="normal" in="SourceGraphic" in2="effect1_dropShadow_436_10432" result="shape"/>
</filter>
</defs>
</svg>