<svg width="48" height="48" viewBox="0 0 48 48" fill="none" xmlns="http://www.w3.org/2000/svg">
  <!-- Background circle with gradient -->
  <circle cx="24" cy="24" r="24" fill="url(#gradient1)" opacity="0.2"/>
  <circle cx="24" cy="24" r="20" fill="url(#gradient2)" opacity="0.3"/>
  
  <!-- Book/Learning icon -->
  <path d="M14 12C14 10.8954 14.8954 10 16 10H32C33.1046 10 34 10.8954 34 12V36C34 37.1046 33.1046 38 32 38H16C14.8954 38 14 37.1046 14 36V12Z" fill="#6244FF" stroke="#FFFFFF" stroke-width="1"/>
  
  <!-- Book spine -->
  <rect x="16" y="12" width="2" height="24" fill="#FFFFFF" opacity="0.8"/>
  
  <!-- Pages -->
  <rect x="20" y="16" width="10" height="1" fill="#FFFFFF" opacity="0.6"/>
  <rect x="20" y="19" width="8" height="1" fill="#FFFFFF" opacity="0.6"/>
  <rect x="20" y="22" width="10" height="1" fill="#FFFFFF" opacity="0.6"/>
  <rect x="20" y="25" width="6" height="1" fill="#FFFFFF" opacity="0.6"/>
  <rect x="20" y="28" width="9" height="1" fill="#FFFFFF" opacity="0.6"/>
  <rect x="20" y="31" width="7" height="1" fill="#FFFFFF" opacity="0.6"/>
  
  <!-- Bookmark -->
  <path d="M28 10V20L30 18L32 20V10" fill="#FFAE2D" stroke="#FFFFFF" stroke-width="0.5"/>
  
  <defs>
    <linearGradient id="gradient1" x1="0%" y1="0%" x2="100%" y2="100%">
      <stop offset="0%" style="stop-color:#6244FF;stop-opacity:1" />
      <stop offset="100%" style="stop-color:#FFAE2D;stop-opacity:1" />
    </linearGradient>
    <linearGradient id="gradient2" x1="0%" y1="0%" x2="100%" y2="100%">
      <stop offset="0%" style="stop-color:#6244FF;stop-opacity:1" />
      <stop offset="100%" style="stop-color:#4F37CC;stop-opacity:1" />
    </linearGradient>
  </defs>
</svg>