<svg width="98" height="98" viewBox="0 0 98 98" fill="none" xmlns="http://www.w3.org/2000/svg">
<g filter="url(#filter0_d_436_10438)">
<rect x="25" y="21" width="48" height="48" rx="24" fill="#5765F2" shape-rendering="crispEdges"/>
<path fill-rule="evenodd" clip-rule="evenodd" d="M52.9224 57.5477C52.9224 57.6678 52.8749 57.7825 52.7932 57.8675C52.7101 57.9525 52.598 57.9998 52.4807 57.9998H50.1958C50.0771 58.0038 49.9611 57.9566 49.8754 57.8716C49.7897 57.7866 49.7423 57.6692 49.7423 57.5477C49.7423 57.4249 49.7897 57.3089 49.8754 57.2239C49.9611 57.1375 50.0771 57.0917 50.1958 57.0957H52.4807C52.598 57.0957 52.7101 57.1429 52.7932 57.2279C52.8749 57.313 52.9224 57.4276 52.9224 57.5477ZM43.7869 33.9453C43.8818 34.0142 44.0005 34.0425 44.1165 34.0223C44.2312 34.002 44.3354 33.9359 44.4026 33.8374L45.1897 32.7053C45.3229 32.5016 45.2741 32.225 45.079 32.0833C44.8825 31.9416 44.6123 31.9848 44.4685 32.1818L43.6814 33.3152C43.5417 33.5189 43.5878 33.801 43.7869 33.9453ZM46.2221 36.9962C46.2722 36.9948 46.321 36.9867 46.3684 36.9705L47.6513 36.5118C47.8754 36.4254 47.9928 36.1704 47.9137 35.9383C47.8332 35.7062 47.588 35.5821 47.3586 35.6576L46.0757 36.1164H46.0771C45.8727 36.1892 45.7514 36.4011 45.787 36.6197C45.8226 36.8369 46.0072 36.9962 46.2221 36.9962ZM34.9005 40.4732L33.6453 41.0035V41.0049C33.4198 41.0993 33.3117 41.3638 33.4053 41.5959C33.4989 41.8266 33.7574 41.9359 33.9828 41.8415L35.238 41.3098C35.4634 41.214 35.5716 40.9495 35.4779 40.7188C35.3857 40.4881 35.1272 40.3774 34.9005 40.4732ZM34.7686 37.645C34.9928 37.645 35.1813 37.4723 35.2064 37.2429C35.2314 37.0149 35.0851 36.8044 34.8675 36.7518L33.5425 36.4414C33.4278 36.4144 33.3078 36.4347 33.2089 36.4981C33.1087 36.5615 33.0375 36.6641 33.0111 36.7801C32.9848 36.8975 33.0059 37.0203 33.0678 37.1228C33.1311 37.224 33.23 37.2969 33.3447 37.3225L34.6684 37.6329L34.6698 37.6342C34.7014 37.641 34.7357 37.645 34.7686 37.645ZM36.9441 33.6968L36.0396 32.6592C35.8774 32.473 35.5979 32.4568 35.416 32.6227C35.234 32.7887 35.2182 33.0748 35.3804 33.261L36.2848 34.2986C36.4483 34.4794 36.7226 34.4916 36.9019 34.3283C37.0812 34.165 37.0997 33.8843 36.9441 33.6968ZM63.1246 41.137L62.0448 40.1587L63.7548 53.5696H63.7561C63.7746 53.7194 63.7192 53.8692 63.6084 53.969C63.4977 54.0675 63.3461 54.1039 63.2037 54.0648C59.3512 53.0096 54.6866 53.8462 51.4524 54.7327C51.3786 54.753 51.2995 54.753 51.2243 54.7327C47.9915 53.8462 43.3255 53.011 39.473 54.0661H39.4744C39.3306 54.1053 39.179 54.0688 39.0683 53.9703C38.9575 53.8705 38.9022 53.7207 38.9206 53.571L39.8475 46.2994H39.8488C39.4546 46.1037 39.1395 45.7718 38.9602 45.3643L37.676 54.5274L38.7558 55.3978C41.5892 54.6313 46.2526 54.5558 49.8864 55.8336L51.338 55.1697L52.7896 55.8295C56.4234 54.5517 61.088 54.63 63.9202 55.3937L65 54.5234L63.1246 41.137ZM45.5074 38.9092C47.3282 38.7581 49.1608 38.9808 50.896 39.5637V53.7086C47.7726 52.9003 43.5589 52.2203 39.8789 53.0339L40.7148 46.4857C41.3015 46.4654 41.8434 46.1632 42.1769 45.6693C42.2336 45.8596 42.4037 45.9891 42.5975 45.9891C42.6331 45.9891 42.6687 45.985 42.7043 45.9756C45.6234 45.2402 47.4533 45.22 49.7002 45.8973H49.6989C49.8136 45.9351 49.9375 45.9257 50.043 45.8677C50.1498 45.811 50.2289 45.7125 50.2619 45.5951C50.2961 45.4777 50.2816 45.3509 50.2223 45.2443C50.163 45.1377 50.0641 45.0594 49.9481 45.0297C47.5643 44.3119 45.543 44.3308 42.4921 45.0985C42.4724 45.1026 42.4539 45.1093 42.4354 45.1174C42.4473 45.0743 42.4579 45.0311 42.4671 44.9879V44.9866C42.918 44.6776 43.1896 44.1581 43.1896 43.6021V42.8641C43.1817 42.6185 43.2977 42.3864 43.4981 42.2501C44.5806 41.4594 45.3057 40.2545 45.5074 38.9092ZM49.9479 50.0358C47.5641 49.318 45.5429 49.3355 42.492 50.1046C42.2744 50.1586 42.1307 50.3705 42.1584 50.5985C42.1848 50.8265 42.3746 50.9965 42.5988 50.9952C42.6344 50.9965 42.67 50.9911 42.7056 50.983C45.6246 50.2477 47.4546 50.2274 49.7015 50.9034C49.8135 50.9399 49.9362 50.9277 50.0416 50.871C50.1458 50.813 50.2236 50.7159 50.2565 50.5998C50.2895 50.4824 50.2763 50.3583 50.2183 50.2517C50.1603 50.1465 50.064 50.0682 49.9493 50.0358L49.9479 50.0358ZM49.9479 47.5315C47.5641 46.8136 45.5429 46.8325 42.492 47.6003V47.6016C42.2744 47.6556 42.1307 47.8675 42.1584 48.0955C42.1848 48.3235 42.3746 48.4935 42.5988 48.4922C42.6344 48.4922 42.67 48.4881 42.7056 48.4787C45.6246 47.7433 47.4546 47.7231 49.7015 48.3991V48.4004C49.8149 48.4382 49.9388 48.4274 50.0456 48.3707C50.151 48.3141 50.2302 48.2156 50.2644 48.0982C50.2974 47.9808 50.2829 47.8539 50.2236 47.7474C50.1642 47.6408 50.0654 47.5625 49.9493 47.5328L49.9479 47.5315ZM46.2007 40.6865L47.506 41.0724C47.7407 41.1412 47.9846 41.0022 48.0532 40.7634C48.1204 40.5232 47.9846 40.2722 47.7499 40.2034L46.4446 39.8175C46.2113 39.7487 45.966 39.8877 45.8988 40.1265C45.8302 40.3667 45.966 40.6177 46.2007 40.6865ZM44.0978 42.2436C43.8578 42.2881 43.697 42.5216 43.7391 42.7685C43.7827 43.014 44.0107 43.1787 44.252 43.1341C46.0596 42.7496 47.9331 42.8386 49.6973 43.3946C49.7382 43.4067 49.7804 43.4134 49.8226 43.4134C50.0427 43.4134 50.2286 43.2475 50.2603 43.0248C50.292 42.8022 50.1588 42.5904 49.9478 42.5269C48.0506 41.9359 46.0399 41.8388 44.0978 42.2436ZM51.7792 53.7101V39.5665C54.6969 38.6827 56.7799 38.5613 61.081 39.5922L62.795 53.0369C59.1167 52.2232 54.9027 52.9033 51.7805 53.7116L51.7792 53.7101ZM52.6784 43.0882C52.7113 43.2029 52.7878 43.3 52.8906 43.358C52.9935 43.4147 53.1148 43.4282 53.2268 43.3945C55.4722 42.7185 57.3035 42.74 60.2227 43.4741C60.257 43.4822 60.2926 43.4862 60.3295 43.4862C60.5523 43.4862 60.7395 43.3162 60.7673 43.0895C60.795 42.8628 60.6526 42.651 60.435 42.5957C57.3841 41.8279 55.363 41.809 52.9791 42.5268C52.867 42.5606 52.7721 42.6388 52.7154 42.7441C52.6587 42.8493 52.6454 42.9735 52.6784 43.0882ZM52.6784 45.5912C52.7113 45.7072 52.7878 45.8044 52.8906 45.861C52.9935 45.9191 53.1148 45.9325 53.2268 45.8975C55.4722 45.2215 57.3035 45.243 60.2227 45.9757V45.9771C60.257 45.9865 60.2926 45.9906 60.3295 45.9906C60.5523 45.9906 60.7422 45.8205 60.7686 45.5925C60.7963 45.3658 60.6525 45.154 60.435 45.0987C57.3828 44.3309 55.3617 44.312 52.9777 45.0312C52.7444 45.1014 52.6098 45.3523 52.6784 45.5912ZM52.6784 48.0955C52.7113 48.2102 52.7878 48.3074 52.8906 48.364C52.9935 48.4221 53.1148 48.4355 53.2268 48.4018C55.4722 47.7258 57.3035 47.7474 60.2227 48.4814V48.4801C60.257 48.4895 60.2926 48.4936 60.3295 48.4936C60.5523 48.4936 60.7395 48.3236 60.7673 48.0969C60.795 47.8702 60.6526 47.6584 60.435 47.603C57.3841 46.8352 55.363 46.8164 52.9791 47.5342C52.867 47.5679 52.7721 47.6449 52.7154 47.7501C52.6587 47.8553 52.6454 47.9795 52.6784 48.0955ZM60.2227 50.9844C60.257 50.9925 60.2926 50.9979 60.3295 50.9966C60.5523 50.9966 60.7395 50.8266 60.7673 50.5999C60.795 50.3732 60.6526 50.1614 60.435 50.106C57.3841 49.3382 55.363 49.3194 52.9791 50.0372C52.7497 50.1114 52.6205 50.3597 52.6877 50.5958C52.7549 50.8333 52.9962 50.9696 53.2283 50.9048C55.4723 50.2288 57.3035 50.2491 60.2227 50.9844ZM41.3568 45.2701L39.9473 45.2714C40.1306 45.4711 40.3851 45.5844 40.6527 45.5844C40.919 45.5844 41.1748 45.4711 41.358 45.2714L41.3568 45.2701ZM42.3047 43.6009V43.5132H39.0007V43.6023C39.002 44.0233 39.3355 44.3647 39.7469 44.366H41.5585C41.9698 44.366 42.3047 44.0246 42.306 43.6023L42.3047 43.6009ZM38.3202 41.5135C38.6815 41.7685 38.9214 42.1666 38.9821 42.6119H42.3231C42.3837 42.1666 42.6237 41.7686 42.9849 41.5135C44.4128 40.4745 45.0206 38.6098 44.4879 36.9028C43.9553 35.1945 42.4048 34.0341 40.6526 34.0341C38.9005 34.0341 37.3499 35.1945 36.8173 36.9028C36.2834 38.6097 36.891 40.4745 38.3202 41.5135Z" fill="white"/>
</g>
<defs>
<filter id="filter0_d_436_10438" x="0" y="0" width="98" height="98" filterUnits="userSpaceOnUse" color-interpolation-filters="sRGB">
<feFlood flood-opacity="0" result="BackgroundImageFix"/>
<feColorMatrix in="SourceAlpha" type="matrix" values="0 0 0 0 0 0 0 0 0 0 0 0 0 0 0 0 0 0 127 0" result="hardAlpha"/>
<feOffset dy="4"/>
<feGaussianBlur stdDeviation="12.5"/>
<feComposite in2="hardAlpha" operator="out"/>
<feColorMatrix type="matrix" values="0 0 0 0 0.526604 0 0 0 0 0.483567 0 0 0 0 1 0 0 0 0.22 0"/>
<feBlend mode="normal" in2="BackgroundImageFix" result="effect1_dropShadow_436_10438"/>
<feBlend mode="normal" in="SourceGraphic" in2="effect1_dropShadow_436_10438" result="shape"/>
</filter>
</defs>
</svg>
