<svg width="48" height="48" viewBox="0 0 48 48" fill="none" xmlns="http://www.w3.org/2000/svg">
  <!-- Background circle with gradient -->
  <circle cx="24" cy="24" r="24" fill="url(#gradient5)"/>
  
  <!-- Settings gear icon -->
  <path d="M24 16C24.8 16 25.5 16.3 26.1 16.9L27.5 15.5C28.3 14.7 29.7 14.7 30.5 15.5C31.3 16.3 31.3 17.7 30.5 18.5L29.1 19.9C29.7 20.5 30 21.2 30 22H32C33.1 22 34 22.9 34 24C34 25.1 33.1 26 32 26H30C30 26.8 29.7 27.5 29.1 28.1L30.5 29.5C31.3 30.3 31.3 31.7 30.5 32.5C29.7 33.3 28.3 33.3 27.5 32.5L26.1 31.1C25.5 31.7 24.8 32 24 32C23.2 32 22.5 31.7 21.9 31.1L20.5 32.5C19.7 33.3 18.3 33.3 17.5 32.5C16.7 31.7 16.7 30.3 17.5 29.5L18.9 28.1C18.3 27.5 18 26.8 18 26H16C14.9 26 14 25.1 14 24C14 22.9 14.9 22 16 22H18C18 21.2 18.3 20.5 18.9 19.9L17.5 18.5C16.7 17.7 16.7 16.3 17.5 15.5C18.3 14.7 19.7 14.7 20.5 15.5L21.9 16.9C22.5 16.3 23.2 16 24 16Z" fill="white"/>
  
  <!-- Center circle -->
  <circle cx="24" cy="24" r="4" fill="url(#gradient5)"/>
  
  <defs>
    <linearGradient id="gradient5" x1="0%" y1="0%" x2="100%" y2="100%">
      <stop offset="0%" style="stop-color:#6244FF;stop-opacity:1" />
      <stop offset="100%" style="stop-color:#FFAE2D;stop-opacity:1" />
    </linearGradient>
  </defs>
</svg>