<svg width="93" height="98" viewBox="0 0 93 98" fill="none" xmlns="http://www.w3.org/2000/svg">
<g filter="url(#filter0_d_458_724)">
<rect x="20" y="21" width="48" height="48" rx="24" fill="#5765F2" shape-rendering="crispEdges"/>
<path fill-rule="evenodd" clip-rule="evenodd" d="M47.9224 57.5477C47.9224 57.6678 47.8749 57.7825 47.7932 57.8675C47.7101 57.9525 47.598 57.9998 47.4807 57.9998H45.1958C45.0771 58.0038 44.9611 57.9566 44.8754 57.8716C44.7897 57.7866 44.7423 57.6692 44.7423 57.5477C44.7423 57.4249 44.7897 57.3089 44.8754 57.2239C44.9611 57.1375 45.0771 57.0917 45.1958 57.0957H47.4807C47.598 57.0957 47.7101 57.1429 47.7932 57.2279C47.8749 57.313 47.9224 57.4276 47.9224 57.5477ZM38.7869 33.9453C38.8818 34.0142 39.0005 34.0425 39.1165 34.0223C39.2312 34.002 39.3354 33.9359 39.4026 33.8374L40.1897 32.7053C40.3229 32.5016 40.2741 32.225 40.079 32.0833C39.8825 31.9416 39.6123 31.9848 39.4685 32.1818L38.6814 33.3152C38.5417 33.5189 38.5878 33.801 38.7869 33.9453ZM41.2221 36.9962C41.2722 36.9948 41.321 36.9867 41.3684 36.9705L42.6513 36.5118C42.8754 36.4254 42.9928 36.1704 42.9137 35.9383C42.8332 35.7062 42.588 35.5821 42.3586 35.6576L41.0757 36.1164H41.0771C40.8727 36.1892 40.7514 36.4011 40.787 36.6197C40.8226 36.8369 41.0072 36.9962 41.2221 36.9962ZM29.9005 40.4732L28.6453 41.0035V41.0049C28.4198 41.0993 28.3117 41.3638 28.4053 41.5959C28.4989 41.8266 28.7574 41.9359 28.9828 41.8415L30.238 41.3098C30.4634 41.214 30.5716 40.9495 30.4779 40.7188C30.3857 40.4881 30.1272 40.3774 29.9005 40.4732ZM29.7686 37.645C29.9928 37.645 30.1813 37.4723 30.2064 37.2429C30.2314 37.0149 30.0851 36.8044 29.8675 36.7518L28.5425 36.4414C28.4278 36.4144 28.3078 36.4347 28.2089 36.4981C28.1087 36.5615 28.0375 36.6641 28.0111 36.7801C27.9848 36.8975 28.0059 37.0203 28.0678 37.1228C28.1311 37.224 28.23 37.2969 28.3447 37.3225L29.6684 37.6329L29.6698 37.6342C29.7014 37.641 29.7357 37.645 29.7686 37.645ZM31.9441 33.6968L31.0396 32.6592C30.8774 32.473 30.5979 32.4568 30.416 32.6227C30.234 32.7887 30.2182 33.0748 30.3804 33.261L31.2848 34.2986C31.4483 34.4794 31.7226 34.4916 31.9019 34.3283C32.0812 34.165 32.0997 33.8843 31.9441 33.6968ZM58.1246 41.137L57.0448 40.1587L58.7548 53.5696H58.7561C58.7746 53.7194 58.7192 53.8692 58.6084 53.969C58.4977 54.0675 58.3461 54.1039 58.2037 54.0648C54.3512 53.0096 49.6866 53.8462 46.4524 54.7327C46.3786 54.753 46.2995 54.753 46.2243 54.7327C42.9915 53.8462 38.3255 53.011 34.473 54.0661H34.4744C34.3306 54.1053 34.179 54.0688 34.0683 53.9703C33.9575 53.8705 33.9022 53.7207 33.9206 53.571L34.8475 46.2994H34.8488C34.4546 46.1037 34.1395 45.7718 33.9602 45.3643L32.676 54.5275L33.7558 55.3978C36.5892 54.6313 41.2526 54.5558 44.8864 55.8336L46.338 55.1697L47.7896 55.8295C51.4234 54.5517 56.088 54.63 58.9202 55.3937L60 54.5234L58.1246 41.137ZM40.5074 38.9092C42.3282 38.7581 44.1608 38.9808 45.896 39.5637V53.7086C42.7726 52.9003 38.5589 52.2203 34.8789 53.0339L35.7148 46.4857C36.3015 46.4654 36.8434 46.1632 37.1769 45.6693C37.2336 45.8596 37.4037 45.9891 37.5975 45.9891C37.6331 45.9891 37.6687 45.985 37.7043 45.9756C40.6234 45.2402 42.4533 45.22 44.7002 45.8973H44.6989C44.8136 45.9351 44.9375 45.9257 45.043 45.8677C45.1498 45.811 45.2289 45.7125 45.2619 45.5951C45.2961 45.4777 45.2816 45.3509 45.2223 45.2443C45.163 45.1377 45.0641 45.0594 44.9481 45.0297C42.5643 44.3119 40.543 44.3308 37.4921 45.0985C37.4724 45.1026 37.4539 45.1093 37.4354 45.1174C37.4473 45.0743 37.4579 45.0311 37.4671 44.9879V44.9866C37.918 44.6776 38.1896 44.1581 38.1896 43.6021V42.8641C38.1817 42.6185 38.2977 42.3864 38.4981 42.2501C39.5806 41.4594 40.3057 40.2545 40.5074 38.9092ZM44.9479 50.0358C42.5641 49.318 40.5429 49.3355 37.492 50.1046C37.2744 50.1586 37.1307 50.3705 37.1584 50.5985C37.1848 50.8265 37.3746 50.9965 37.5988 50.9952C37.6344 50.9965 37.67 50.9911 37.7056 50.983C40.6246 50.2477 42.4546 50.2274 44.7015 50.9034C44.8135 50.9399 44.9362 50.9277 45.0416 50.871C45.1458 50.813 45.2236 50.7159 45.2565 50.5998C45.2895 50.4824 45.2763 50.3583 45.2183 50.2517C45.1603 50.1465 45.064 50.0682 44.9493 50.0358L44.9479 50.0358ZM44.9479 47.5315C42.5641 46.8136 40.5429 46.8325 37.492 47.6003V47.6016C37.2744 47.6556 37.1307 47.8674 37.1584 48.0955C37.1848 48.3235 37.3746 48.4935 37.5988 48.4922C37.6344 48.4922 37.67 48.4881 37.7056 48.4787C40.6246 47.7433 42.4546 47.7231 44.7015 48.3991V48.4004C44.8149 48.4382 44.9388 48.4274 45.0456 48.3707C45.1511 48.3141 45.2302 48.2156 45.2644 48.0982C45.2974 47.9808 45.2829 47.8539 45.2236 47.7474C45.1642 47.6408 45.0654 47.5625 44.9493 47.5328L44.9479 47.5315ZM41.2007 40.6865L42.506 41.0724C42.7407 41.1412 42.9846 41.0022 43.0532 40.7634C43.1204 40.5232 42.9846 40.2722 42.7499 40.2034L41.4446 39.8175C41.2113 39.7487 40.966 39.8877 40.8988 40.1265C40.8302 40.3667 40.966 40.6177 41.2007 40.6865ZM39.0978 42.2436C38.8578 42.2881 38.697 42.5216 38.7391 42.7685C38.7827 43.014 39.0107 43.1787 39.252 43.1341C41.0596 42.7496 42.9331 42.8386 44.6973 43.3946C44.7382 43.4067 44.7804 43.4134 44.8226 43.4134C45.0427 43.4134 45.2286 43.2475 45.2603 43.0248C45.292 42.8022 45.1588 42.5904 44.9478 42.5269C43.0506 41.9359 41.0399 41.8388 39.0978 42.2436ZM46.7792 53.7101V39.5665C49.6969 38.6827 51.7799 38.5613 56.081 39.5922L57.795 53.0369C54.1167 52.2232 49.9027 52.9033 46.7805 53.7116L46.7792 53.7101ZM47.6784 43.0882C47.7113 43.2029 47.7878 43.3 47.8906 43.358C47.9935 43.4147 48.1148 43.4282 48.2268 43.3945C50.4722 42.7185 52.3035 42.74 55.2227 43.4741C55.257 43.4822 55.2926 43.4862 55.3295 43.4862C55.5523 43.4862 55.7395 43.3162 55.7673 43.0895C55.795 42.8629 55.6526 42.651 55.435 42.5957C52.3841 41.8279 50.363 41.809 47.9791 42.5268C47.867 42.5606 47.7721 42.6388 47.7154 42.7441C47.6587 42.8493 47.6454 42.9735 47.6784 43.0882ZM47.6784 45.5912C47.7113 45.7072 47.7878 45.8044 47.8906 45.861C47.9935 45.9191 48.1148 45.9325 48.2268 45.8975C50.4722 45.2215 52.3035 45.243 55.2227 45.9757V45.9771C55.257 45.9865 55.2926 45.9906 55.3295 45.9906C55.5523 45.9906 55.7422 45.8205 55.7686 45.5925C55.7963 45.3658 55.6525 45.154 55.435 45.0987C52.3828 44.3309 50.3617 44.312 47.9777 45.0312C47.7444 45.1014 47.6098 45.3523 47.6784 45.5912ZM47.6784 48.0955C47.7113 48.2102 47.7878 48.3074 47.8906 48.364C47.9935 48.4221 48.1148 48.4355 48.2268 48.4018C50.4722 47.7258 52.3035 47.7474 55.2227 48.4814V48.4801C55.257 48.4895 55.2926 48.4936 55.3295 48.4936C55.5523 48.4936 55.7395 48.3236 55.7673 48.0969C55.795 47.8702 55.6526 47.6584 55.435 47.603C52.3841 46.8352 50.363 46.8164 47.9791 47.5342C47.867 47.5679 47.7721 47.6449 47.7154 47.7501C47.6587 47.8553 47.6454 47.9795 47.6784 48.0955ZM55.2227 50.9844C55.257 50.9925 55.2926 50.9979 55.3295 50.9966C55.5523 50.9966 55.7395 50.8266 55.7673 50.5999C55.795 50.3732 55.6526 50.1614 55.435 50.106C52.3841 49.3382 50.363 49.3194 47.9791 50.0372C47.7497 50.1114 47.6205 50.3597 47.6877 50.5958C47.7549 50.8333 47.9962 50.9696 48.2283 50.9048C50.4723 50.2288 52.3035 50.2491 55.2227 50.9844ZM36.3568 45.2701L34.9473 45.2714C35.1306 45.4711 35.3851 45.5844 35.6527 45.5844C35.919 45.5844 36.1748 45.4711 36.358 45.2714L36.3568 45.2701ZM37.3047 43.6009V43.5132H34.0007V43.6023C34.002 44.0233 34.3355 44.3647 34.7469 44.366H36.5585C36.9698 44.366 37.3047 44.0246 37.306 43.6023L37.3047 43.6009ZM33.3202 41.5135C33.6815 41.7685 33.9214 42.1666 33.9821 42.6119H37.3231C37.3837 42.1666 37.6237 41.7686 37.9849 41.5135C39.4128 40.4745 40.0206 38.6098 39.4879 36.9028C38.9553 35.1945 37.4048 34.0341 35.6526 34.0341C33.9005 34.0341 32.3499 35.1945 31.8173 36.9028C31.2834 38.6097 31.891 40.4745 33.3202 41.5135Z" fill="white"/>
</g>
<defs>
<filter id="filter0_d_458_724" x="-5" y="0" width="98" height="98" filterUnits="userSpaceOnUse" color-interpolation-filters="sRGB">
<feFlood flood-opacity="0" result="BackgroundImageFix"/>
<feColorMatrix in="SourceAlpha" type="matrix" values="0 0 0 0 0 0 0 0 0 0 0 0 0 0 0 0 0 0 127 0" result="hardAlpha"/>
<feOffset dy="4"/>
<feGaussianBlur stdDeviation="12.5"/>
<feComposite in2="hardAlpha" operator="out"/>
<feColorMatrix type="matrix" values="0 0 0 0 0.526604 0 0 0 0 0.483567 0 0 0 0 1 0 0 0 0.22 0"/>
<feBlend mode="normal" in2="BackgroundImageFix" result="effect1_dropShadow_458_724"/>
<feBlend mode="normal" in="SourceGraphic" in2="effect1_dropShadow_458_724" result="shape"/>
</filter>
</defs>
</svg>
