<svg width="48" height="48" viewBox="0 0 48 48" fill="none" xmlns="http://www.w3.org/2000/svg">
  <!-- Background circle with gradient -->
  <circle cx="24" cy="24" r="24" fill="url(#gradient1)" opacity="0.2"/>
  <circle cx="24" cy="24" r="20" fill="url(#gradient2)" opacity="0.3"/>
  
  <!-- Note/Document icon -->
  <path d="M16 10C14.8954 10 14 10.8954 14 12V36C14 37.1046 14.8954 38 16 38H32C33.1046 38 34 37.1046 34 36V18L26 10H16Z" fill="#6244FF" stroke="#FFFFFF" stroke-width="1"/>
  
  <!-- Folded corner -->
  <path d="M26 10V18H34L26 10Z" fill="#4F37CC" stroke="#FFFFFF" stroke-width="1"/>
  
  <!-- Text lines -->
  <rect x="18" y="22" width="10" height="1" fill="#FFFFFF" opacity="0.8"/>
  <rect x="18" y="25" width="8" height="1" fill="#FFFFFF" opacity="0.8"/>
  <rect x="18" y="28" width="10" height="1" fill="#FFFFFF" opacity="0.8"/>
  <rect x="18" y="31" width="6" height="1" fill="#FFFFFF" opacity="0.8"/>
  
  <!-- Pen/Edit icon -->
  <circle cx="28" cy="30" r="3" fill="#FFAE2D" stroke="#FFFFFF" stroke-width="1"/>
  <path d="M26.5 31.5L29.5 28.5" stroke="#FFFFFF" stroke-width="1" stroke-linecap="round"/>
  
  <defs>
    <linearGradient id="gradient1" x1="0%" y1="0%" x2="100%" y2="100%">
      <stop offset="0%" style="stop-color:#6244FF;stop-opacity:1" />
      <stop offset="100%" style="stop-color:#FFAE2D;stop-opacity:1" />
    </linearGradient>
    <linearGradient id="gradient2" x1="0%" y1="0%" x2="100%" y2="100%">
      <stop offset="0%" style="stop-color:#6244FF;stop-opacity:1" />
      <stop offset="100%" style="stop-color:#4F37CC;stop-opacity:1" />
    </linearGradient>
  </defs>
</svg>