<svg width="48" height="48" viewBox="0 0 48 48" fill="none" xmlns="http://www.w3.org/2000/svg">
<g clip-path="url(#clip0_508_1882)">
<g filter="url(#filter0_d_508_1882)">
<path d="M48 24C48 10.7452 37.2548 0 24 0C10.7452 0 0 10.7452 0 24C0 37.2548 10.7452 48 24 48C37.2548 48 48 37.2548 48 24Z" fill="#5765F2"/>
<path d="M36.5944 22.3698C36.3864 22.2372 34.7458 21.257 34.0958 20.958L33.2898 19.008C33.529 18.3632 33.9892 16.5562 34.0698 16.2416C34.1021 16.0984 34.0975 15.9494 34.0566 15.8085C34.0157 15.6675 33.9397 15.5392 33.8358 15.4356L32.5644 14.172C32.461 14.0676 32.3328 13.9914 32.1917 13.9504C32.0507 13.9095 31.9015 13.9052 31.7584 13.938C31.5192 13.9926 29.6784 14.458 28.992 14.718L27.042 13.912C26.7586 13.288 25.8044 11.689 25.6302 11.4134C25.5532 11.2873 25.4451 11.183 25.3163 11.1106C25.1874 11.0383 25.0422 11.0002 24.8944 11H23.1056C22.9587 11.0001 22.8142 11.0373 22.6855 11.1082C22.5569 11.1791 22.4483 11.2814 22.3698 11.4056C22.2372 11.6136 21.257 13.2542 20.958 13.9042L19.008 14.7102C18.3632 14.471 16.5562 14.0108 16.2416 13.9302C16.0984 13.8979 15.9494 13.9024 15.8084 13.9434C15.6675 13.9843 15.5392 14.0603 15.4356 14.1642L14.172 15.4356C14.0676 15.5389 13.9914 15.6672 13.9504 15.8082C13.9095 15.9493 13.9052 16.0984 13.938 16.2416C13.9926 16.4808 14.458 18.3216 14.718 19.008L13.912 20.958C13.288 21.2414 11.689 22.1956 11.4134 22.3698C11.2873 22.4468 11.183 22.5549 11.1106 22.6837C11.0383 22.8126 11.0002 22.9578 11 23.1056V24.8918C11.0001 25.0387 11.0373 25.1832 11.1082 25.3118C11.1791 25.4405 11.2814 25.5491 11.4056 25.6276C11.6136 25.7602 13.2542 26.7404 13.9042 27.0394L14.7102 28.9894C14.471 29.6342 14.0108 31.4412 13.9302 31.7558C13.8979 31.899 13.9024 32.048 13.9434 32.1889C13.9843 32.3299 14.0603 32.4582 14.1642 32.5618L15.4278 33.8254C15.5311 33.9297 15.6594 34.006 15.8004 34.0469C15.9415 34.0879 16.0906 34.0922 16.2338 34.0594C16.473 34.0048 18.3138 33.5394 19.0002 33.2794L20.9502 34.0854C21.2336 34.7094 22.1878 36.3084 22.362 36.584C22.4394 36.7117 22.5485 36.8172 22.6789 36.8901C22.8092 36.963 22.9562 37.0009 23.1056 37H24.8918C25.0387 36.9999 25.1832 36.9627 25.3118 36.8918C25.4405 36.8209 25.5491 36.7186 25.6276 36.5944C25.7602 36.3864 26.7404 34.7458 27.0394 34.0958L28.9894 33.2898C29.6342 33.529 31.4412 33.9892 31.7558 34.0698C31.899 34.1021 32.048 34.0975 32.1889 34.0566C32.3299 34.0157 32.4582 33.9397 32.5618 33.8358L33.8254 32.5722C33.9297 32.4688 34.006 32.3406 34.0469 32.1995C34.0879 32.0585 34.0922 31.9093 34.0594 31.7662C34.0048 31.527 33.5394 29.6862 33.2794 28.9998L34.0854 27.0498C34.7094 26.7664 36.3084 25.8122 36.584 25.638C36.7117 25.5606 36.8172 25.4514 36.8901 25.3211C36.963 25.1908 37.0009 25.0437 37 24.8944V23.1056C37.0011 22.9585 36.9644 22.8135 36.8934 22.6846C36.8224 22.5558 36.7194 22.4474 36.5944 22.3698ZM24 29.6602C22.8795 29.6592 21.7844 29.3259 20.8533 28.7025C19.9222 28.0791 19.1969 27.1937 18.7691 26.158C18.3412 25.1224 18.2301 23.9832 18.4497 22.8844C18.6693 21.7857 19.2098 20.7767 20.0028 19.9851C20.7959 19.1935 21.8058 18.6548 22.905 18.4372C24.0042 18.2197 25.1432 18.3329 26.178 18.7626C27.2129 19.1924 28.097 19.9194 28.7187 20.8516C29.3403 21.7838 29.6716 22.8795 29.6706 24C29.6671 25.5019 29.0683 26.9412 28.0053 28.0022C26.9423 29.0633 25.5019 29.6595 24 29.6602Z" fill="white"/>
</g>
</g>
<defs>
<filter id="filter0_d_508_1882" x="-25" y="-21" width="98" height="98" filterUnits="userSpaceOnUse" color-interpolation-filters="sRGB">
<feFlood flood-opacity="0" result="BackgroundImageFix"/>
<feColorMatrix in="SourceAlpha" type="matrix" values="0 0 0 0 0 0 0 0 0 0 0 0 0 0 0 0 0 0 127 0" result="hardAlpha"/>
<feOffset dy="4"/>
<feGaussianBlur stdDeviation="12.5"/>
<feComposite in2="hardAlpha" operator="out"/>
<feColorMatrix type="matrix" values="0 0 0 0 0.526604 0 0 0 0 0.483567 0 0 0 0 1 0 0 0 0.22 0"/>
<feBlend mode="normal" in2="BackgroundImageFix" result="effect1_dropShadow_508_1882"/>
<feBlend mode="normal" in="SourceGraphic" in2="effect1_dropShadow_508_1882" result="shape"/>
</filter>
<clipPath id="clip0_508_1882">
<rect width="48" height="48" fill="white"/>
</clipPath>
</defs>
</svg>
