<svg width="48" height="48" viewBox="0 0 48 48" fill="none" xmlns="http://www.w3.org/2000/svg">
  <!-- Background circle with gradient -->
  <circle cx="24" cy="24" r="24" fill="url(#gradient1)" opacity="0.2"/>
  <circle cx="24" cy="24" r="20" fill="url(#gradient2)" opacity="0.3"/>
  
  <!-- Settings gear icon -->
  <path d="M24 16C24.8 16 25.5 16.2 26.1 16.6L27.4 15.3C27.8 14.9 28.4 14.9 28.8 15.3L30.7 17.2C31.1 17.6 31.1 18.2 30.7 18.6L29.4 19.9C29.8 20.5 30 21.2 30 22H32C32.6 22 33 22.4 33 23V25C33 25.6 32.6 26 32 26H30C30 26.8 29.8 27.5 29.4 28.1L30.7 29.4C31.1 29.8 31.1 30.4 30.7 30.8L28.8 32.7C28.4 33.1 27.8 33.1 27.4 32.7L26.1 31.4C25.5 31.8 24.8 32 24 32C23.2 32 22.5 31.8 21.9 31.4L20.6 32.7C20.2 33.1 19.6 33.1 19.2 32.7L17.3 30.8C16.9 30.4 16.9 29.8 17.3 29.4L18.6 28.1C18.2 27.5 18 26.8 18 26H16C15.4 26 15 25.6 15 25V23C15 22.4 15.4 22 16 22H18C18 21.2 18.2 20.5 18.6 19.9L17.3 18.6C16.9 18.2 16.9 17.6 17.3 17.2L19.2 15.3C19.6 14.9 20.2 14.9 20.6 15.3L21.9 16.6C22.5 16.2 23.2 16 24 16Z" fill="#6244FF" stroke="#FFFFFF" stroke-width="1"/>
  
  <!-- Center circle -->
  <circle cx="24" cy="24" r="4" fill="#FFAE2D" stroke="#FFFFFF" stroke-width="1"/>
  <circle cx="24" cy="24" r="2" fill="#FFFFFF" opacity="0.8"/>
  
  <defs>
    <linearGradient id="gradient1" x1="0%" y1="0%" x2="100%" y2="100%">
      <stop offset="0%" style="stop-color:#6244FF;stop-opacity:1" />
      <stop offset="100%" style="stop-color:#FFAE2D;stop-opacity:1" />
    </linearGradient>
    <linearGradient id="gradient2" x1="0%" y1="0%" x2="100%" y2="100%">
      <stop offset="0%" style="stop-color:#6244FF;stop-opacity:1" />
      <stop offset="100%" style="stop-color:#4F37CC;stop-opacity:1" />
    </linearGradient>
  </defs>
</svg>