<svg width="24" height="24" viewBox="0 0 24 24" fill="none" xmlns="http://www.w3.org/2000/svg">
  <circle cx="12" cy="12" r="12" fill="url(#gradient)" />
  <path d="M12 8C10.9 8 10 8.9 10 10C10 11.1 10.9 12 12 12C13.1 12 14 11.1 14 10C14 8.9 13.1 8 12 8ZM19.43 12.935C19.49 12.63 19.5 12.32 19.5 12C19.5 11.68 19.49 11.37 19.43 11.065L21.54 9.37C21.73 9.22 21.78 8.95 21.66 8.73L19.66 5.27C19.54 5.05 19.27 4.97 19.05 5.05L16.56 6.05C16.04 5.65 15.48 5.32 14.87 5.07L14.49 2.42C14.46 2.18 14.25 2 14 2H10C9.75 2 9.54 2.18 9.51 2.42L9.13 5.07C8.52 5.32 7.96 5.66 7.44 6.05L4.95 5.05C4.72 4.96 4.46 5.05 4.34 5.27L2.34 8.73C2.21 8.95 2.27 9.22 2.46 9.37L4.57 11.065C4.51 11.37 4.5 11.68 4.5 12C4.5 12.32 4.51 12.63 4.57 12.935L2.46 14.63C2.27 14.78 2.21 15.05 2.34 15.27L4.34 18.73C4.46 18.95 4.73 19.03 4.95 18.95L7.44 17.95C7.96 18.35 8.52 18.68 9.13 18.93L9.51 21.58C9.54 21.82 9.75 22 10 22H14C14.25 22 14.46 21.82 14.49 21.58L14.87 18.93C15.48 18.68 16.04 18.34 16.56 17.95L19.05 18.95C19.28 19.04 19.54 18.95 19.66 18.73L21.66 15.27C21.78 15.05 21.73 14.78 21.54 14.63L19.43 12.935Z" fill="white" />
  <defs>
    <linearGradient id="gradient" x1="0%" y1="0%" x2="100%" y2="100%">
      <stop offset="0%" style="stop-color:#6366F1;stop-opacity:1" />
      <stop offset="100%" style="stop-color:#8B5CF6;stop-opacity:1" />
    </linearGradient>
  </defs>
</svg>