<svg width="48" height="48" viewBox="0 0 48 48" fill="none" xmlns="http://www.w3.org/2000/svg">
  <circle cx="24" cy="24" r="24" fill="url(#gradient5)"/>
  <path d="M24 30C27.3137 30 30 27.3137 30 24C30 20.6863 27.3137 18 24 18C20.6863 18 18 20.6863 18 24C18 27.3137 20.6863 30 24 30Z" fill="white"/>
  <path d="M36 24C36 23.2 35.9 22.4 35.7 21.7L32.6 20.8C32.3 20.1 31.9 19.4 31.4 18.8L32.3 15.7C31.6 14.9 30.8 14.2 30 13.5L26.9 14.4C26.3 13.9 25.6 13.5 24.9 13.2L24 10.1C23.3 10 22.7 10 22 10C21.3 10 20.7 10 20 10.1L19.1 13.2C18.4 13.5 17.7 13.9 17.1 14.4L14 13.5C13.2 14.2 12.4 14.9 11.7 15.7L12.6 18.8C12.1 19.4 11.7 20.1 11.4 20.8L8.3 21.7C8.1 22.4 8 23.2 8 24C8 24.8 8.1 25.6 8.3 26.3L11.4 27.2C11.7 27.9 12.1 28.6 12.6 29.2L11.7 32.3C12.4 33.1 13.2 33.8 14 34.5L17.1 33.6C17.7 34.1 18.4 34.5 19.1 34.8L20 37.9C20.7 38 21.3 38 22 38C22.7 38 23.3 38 24 37.9L24.9 34.8C25.6 34.5 26.3 34.1 26.9 33.6L30 34.5C30.8 33.8 31.6 33.1 32.3 32.3L31.4 29.2C31.9 28.6 32.3 27.9 32.6 27.2L35.7 26.3C35.9 25.6 36 24.8 36 24Z" fill="white"/>
  <defs>
    <linearGradient id="gradient5" x1="0" y1="0" x2="48" y2="48" gradientUnits="userSpaceOnUse">
      <stop stopColor="#6366F1"/>
      <stop offset="1" stopColor="#8B5CF6"/>
    </linearGradient>
  </defs>
</svg>