<svg width="48" height="48" viewBox="0 0 48 48" fill="none" xmlns="http://www.w3.org/2000/svg">
<g clip-path="url(#clip0_508_1881)">
<g filter="url(#filter0_d_508_1881)">
<path d="M48 24C48 10.7452 37.2548 0 24 0C10.7452 0 0 10.7452 0 24C0 37.2548 10.7452 48 24 48C37.2548 48 48 37.2548 48 24Z" fill="#5765F2"/>
<path d="M36.9704 31.2934L35.0783 16.9737C34.9195 15.7953 34.1648 14.83 33.1465 14.3594V14.3714V24.9634C33.1465 25.3485 32.9961 25.712 32.7228 25.984L25.9825 32.7244C25.7105 32.9976 25.347 33.1481 24.9618 33.1481L15.8467 33.1469L15.9683 34.0712C16.1898 35.7635 17.6426 36.9997 19.3084 36.9997C19.4541 36.9997 19.6009 36.99 19.749 36.9708L34.0733 35.0787C35.9112 34.8319 37.2125 33.1336 36.9716 31.2933L36.9704 31.2934Z" fill="white"/>
<path d="M25.4443 27.8508V31.9021L31.903 25.4434H27.8517C26.5241 25.4434 25.4443 26.5232 25.4443 27.8508Z" fill="white"/>
<path d="M24.481 27.851C24.481 25.9926 25.9927 24.4807 27.8513 24.4807H32.1842V14.3703C32.1842 12.5119 30.6725 11 28.8139 11H14.3703C12.5119 11 11 12.5117 11 14.3703V28.8139C11 30.6723 12.5117 32.1842 14.3703 32.1842H24.4807L24.481 27.851ZM15.3332 14.8516H27.851C28.117 14.8516 28.3324 15.0671 28.3324 15.3331C28.3324 15.5991 28.117 15.8145 27.851 15.8145H15.3332C15.0672 15.8145 14.8518 15.5991 14.8518 15.3331C14.8518 15.0671 15.0672 14.8516 15.3332 14.8516ZM15.3332 18.7032H27.851C28.117 18.7032 28.3324 18.9187 28.3324 19.1847C28.3324 19.4507 28.117 19.6661 27.851 19.6661H15.3332C15.0672 19.6661 14.8518 19.4507 14.8518 19.1847C14.8518 18.9187 15.0672 18.7032 15.3332 18.7032ZM23.3806 23.5178H15.3332C15.0672 23.5178 14.8518 23.3023 14.8518 23.0363C14.8518 22.7703 15.0672 22.5549 15.3332 22.5549H23.3806C23.6466 22.5549 23.8621 22.7703 23.8621 23.0363C23.8621 23.3023 23.6466 23.5178 23.3806 23.5178Z" fill="white"/>
</g>
</g>
<defs>
<filter id="filter0_d_508_1881" x="-25" y="-21" width="98" height="98" filterUnits="userSpaceOnUse" color-interpolation-filters="sRGB">
<feFlood flood-opacity="0" result="BackgroundImageFix"/>
<feColorMatrix in="SourceAlpha" type="matrix" values="0 0 0 0 0 0 0 0 0 0 0 0 0 0 0 0 0 0 127 0" result="hardAlpha"/>
<feOffset dy="4"/>
<feGaussianBlur stdDeviation="12.5"/>
<feComposite in2="hardAlpha" operator="out"/>
<feColorMatrix type="matrix" values="0 0 0 0 0.526604 0 0 0 0 0.483567 0 0 0 0 1 0 0 0 0.22 0"/>
<feBlend mode="normal" in2="BackgroundImageFix" result="effect1_dropShadow_508_1881"/>
<feBlend mode="normal" in="SourceGraphic" in2="effect1_dropShadow_508_1881" result="shape"/>
</filter>
<clipPath id="clip0_508_1881">
<rect width="48" height="48" fill="white"/>
</clipPath>
</defs>
</svg>
