<svg width="48" height="48" viewBox="0 0 48 48" fill="none" xmlns="http://www.w3.org/2000/svg">
<g clip-path="url(#clip0_508_1870)">
<circle cx="24" cy="24" r="24" fill="#5765F2"/>
<g filter="url(#filter0_d_508_1870)">
<path d="M29.7901 13.5117C29.4542 13.8079 29.0905 14.0749 28.702 14.3084L27.8754 14.803C27.3073 15.143 27.3073 15.9644 27.8754 16.3044L28.702 16.8005C29.9771 17.584 31.0053 18.7119 31.623 20.0791C31.6873 20.225 31.7472 20.3665 31.8626 20.4803V34.2458C31.8626 35.645 30.3027 36.4782 29.1372 35.7034L23.551 31.9827C22.571 31.329 21.2916 31.329 20.3116 31.9827L14.7253 35.7034C13.5598 36.4782 12 35.645 12 34.2458V15.2628C12 14.2955 12.7843 13.5119 13.7526 13.5119L29.7901 13.5117ZM16.5433 19.2357C16.314 19.475 16.3432 19.8295 16.5608 20.0615L19.6264 22.9958L16.5608 25.9301C16.3286 26.1533 16.3198 26.5225 16.5433 26.7559C16.7667 26.9879 17.1362 26.9967 17.3699 26.7735L20.6546 23.6276C21.0066 23.2701 21.0066 22.7215 20.6546 22.364L17.3699 19.2182C17.1304 19.011 16.7725 18.9979 16.5433 19.2357ZM22.5154 25.768C22.1926 25.768 21.9312 26.0292 21.9312 26.3517C21.9312 26.6741 22.1926 26.9353 22.5154 26.9353H27.189C27.5118 26.9353 27.7732 26.6741 27.7732 26.3517C27.7732 26.0292 27.5118 25.768 27.189 25.768H22.5154ZM32.4466 12C33.2674 13.5452 34.5191 14.6672 36 15.5544C34.5191 16.4415 33.2674 17.5636 32.4466 19.1088C31.6258 17.5636 30.3756 16.4415 28.8932 15.5544C30.3741 14.6672 31.6258 13.5452 32.4466 12Z" fill="white"/>
</g>
</g>
<defs>
<filter id="filter0_d_508_1870" x="-13" y="-9" width="74" height="74" filterUnits="userSpaceOnUse" color-interpolation-filters="sRGB">
<feFlood flood-opacity="0" result="BackgroundImageFix"/>
<feColorMatrix in="SourceAlpha" type="matrix" values="0 0 0 0 0 0 0 0 0 0 0 0 0 0 0 0 0 0 127 0" result="hardAlpha"/>
<feOffset dy="4"/>
<feGaussianBlur stdDeviation="12.5"/>
<feComposite in2="hardAlpha" operator="out"/>
<feColorMatrix type="matrix" values="0 0 0 0 0.526604 0 0 0 0 0.483567 0 0 0 0 1 0 0 0 0.22 0"/>
<feBlend mode="normal" in2="BackgroundImageFix" result="effect1_dropShadow_508_1870"/>
<feBlend mode="normal" in="SourceGraphic" in2="effect1_dropShadow_508_1870" result="shape"/>
</filter>
<clipPath id="clip0_508_1870">
<rect width="48" height="48" fill="white"/>
</clipPath>
</defs>
</svg>
