<svg width="48" height="48" viewBox="0 0 48 48" fill="none" xmlns="http://www.w3.org/2000/svg">
<g clip-path="url(#clip0_508_1880)">
<g filter="url(#filter0_d_508_1880)">
<path d="M48 24C48 10.7452 37.2548 0 24 0C10.7452 0 0 10.7452 0 24C0 37.2548 10.7452 48 24 48C37.2548 48 48 37.2548 48 24Z" fill="#5765F2"/>
<path fill-rule="evenodd" clip-rule="evenodd" d="M27.9224 36.5477C27.9224 36.6678 27.8749 36.7825 27.7932 36.8675C27.7101 36.9525 27.598 36.9998 27.4807 36.9998H25.1958C25.0771 37.0038 24.9611 36.9566 24.8754 36.8716C24.7897 36.7866 24.7423 36.6692 24.7423 36.5477C24.7423 36.4249 24.7897 36.3089 24.8754 36.2239C24.9611 36.1375 25.0771 36.0917 25.1958 36.0957H27.4807C27.598 36.0957 27.7101 36.1429 27.7932 36.2279C27.8749 36.313 27.9224 36.4276 27.9224 36.5477ZM18.7869 12.9453C18.8818 13.0142 19.0005 13.0425 19.1165 13.0223C19.2312 13.002 19.3354 12.9359 19.4026 12.8374L20.1897 11.7053C20.3229 11.5016 20.2741 11.225 20.079 11.0833C19.8825 10.9416 19.6123 10.9848 19.4685 11.1818L18.6814 12.3152C18.5417 12.5189 18.5878 12.801 18.7869 12.9453ZM21.2221 15.9962C21.2722 15.9948 21.321 15.9867 21.3684 15.9705L22.6513 15.5118C22.8754 15.4254 22.9928 15.1704 22.9137 14.9383C22.8332 14.7062 22.588 14.5821 22.3586 14.6576L21.0757 15.1164H21.0771C20.8727 15.1892 20.7514 15.4011 20.787 15.6197C20.8226 15.8369 21.0072 15.9962 21.2221 15.9962ZM9.90049 19.4732L8.64529 20.0035V20.0049C8.41979 20.0993 8.31169 20.3638 8.40529 20.5959C8.49889 20.8266 8.75739 20.9359 8.98279 20.8415L10.238 20.3098C10.4634 20.214 10.5716 19.9495 10.4779 19.7188C10.3857 19.4881 10.1272 19.3774 9.90049 19.4732ZM9.76859 16.645C9.99279 16.645 10.1813 16.4723 10.2064 16.2429C10.2314 16.0149 10.0851 15.8044 9.86749 15.7518L8.54249 15.4414C8.42779 15.4144 8.30779 15.4347 8.20889 15.4981C8.10869 15.5615 8.03749 15.6641 8.01109 15.7801C7.98479 15.8975 8.00589 16.0203 8.06779 16.1228C8.13109 16.224 8.22999 16.2969 8.34469 16.3225L9.66839 16.6329L9.66979 16.6342C9.70139 16.641 9.73569 16.645 9.76859 16.645ZM11.9441 12.6968L11.0396 11.6592C10.8774 11.473 10.5979 11.4568 10.416 11.6227C10.234 11.7887 10.2182 12.0748 10.3804 12.261L11.2848 13.2986C11.4483 13.4794 11.7226 13.4916 11.9019 13.3283C12.0812 13.165 12.0997 12.8843 11.9441 12.6968ZM38.1246 20.137L37.0448 19.1587L38.7548 32.5696H38.7561C38.7746 32.7194 38.7192 32.8692 38.6084 32.969C38.4977 33.0675 38.3461 33.1039 38.2037 33.0648C34.3512 32.0096 29.6866 32.8462 26.4524 33.7327C26.3786 33.753 26.2995 33.753 26.2243 33.7327C22.9915 32.8462 18.3255 32.011 14.473 33.0661H14.4744C14.3306 33.1053 14.179 33.0688 14.0683 32.9703C13.9575 32.8705 13.9022 32.7207 13.9206 32.571L14.8475 25.2994H14.8488C14.4546 25.1037 14.1395 24.7718 13.9602 24.3643L12.676 33.5274L13.7558 34.3978C16.5892 33.6313 21.2526 33.5558 24.8864 34.8336L26.338 34.1697L27.7896 34.8295C31.4234 33.5517 36.088 33.63 38.9202 34.3937L40 33.5234L38.1246 20.137ZM20.5074 17.9092C22.3282 17.7581 24.1608 17.9808 25.896 18.5637V32.7086C22.7726 31.9003 18.5589 31.2203 14.8789 32.0339L15.7148 25.4857C16.3015 25.4654 16.8434 25.1632 17.1769 24.6693C17.2336 24.8596 17.4037 24.9891 17.5975 24.9891C17.6331 24.9891 17.6687 24.985 17.7043 24.9756C20.6234 24.2402 22.4533 24.22 24.7002 24.8973H24.6989C24.8136 24.9351 24.9375 24.9257 25.043 24.8677C25.1498 24.811 25.2289 24.7125 25.2619 24.5951C25.2961 24.4777 25.2816 24.3509 25.2223 24.2443C25.163 24.1377 25.0641 24.0594 24.9481 24.0297C22.5643 23.3119 20.543 23.3308 17.4921 24.0985C17.4724 24.1026 17.4539 24.1093 17.4354 24.1174C17.4473 24.0743 17.4579 24.0311 17.4671 23.9879V23.9866C17.918 23.6776 18.1896 23.1581 18.1896 22.6021V21.8641C18.1817 21.6185 18.2977 21.3864 18.4981 21.2501C19.5806 20.4594 20.3057 19.2545 20.5074 17.9092ZM24.9479 29.0358C22.5641 28.318 20.5429 28.3355 17.492 29.1046C17.2744 29.1586 17.1307 29.3705 17.1584 29.5985C17.1848 29.8265 17.3746 29.9965 17.5988 29.9952C17.6344 29.9965 17.67 29.9911 17.7056 29.983C20.6246 29.2477 22.4546 29.2274 24.7015 29.9034C24.8135 29.9399 24.9362 29.9277 25.0416 29.871C25.1458 29.813 25.2236 29.7159 25.2565 29.5998C25.2895 29.4824 25.2763 29.3583 25.2183 29.2517C25.1603 29.1465 25.064 29.0682 24.9493 29.0358H24.9479ZM24.9479 26.5315C22.5641 25.8136 20.5429 25.8325 17.492 26.6003V26.6016C17.2744 26.6556 17.1307 26.8675 17.1584 27.0955C17.1848 27.3235 17.3746 27.4935 17.5988 27.4922C17.6344 27.4922 17.67 27.4881 17.7056 27.4787C20.6246 26.7433 22.4546 26.7231 24.7015 27.3991V27.4004C24.8149 27.4382 24.9388 27.4274 25.0456 27.3707C25.151 27.3141 25.2302 27.2156 25.2644 27.0982C25.2974 26.9808 25.2829 26.8539 25.2236 26.7474C25.1642 26.6408 25.0654 26.5625 24.9493 26.5328L24.9479 26.5315ZM21.2007 19.6865L22.506 20.0724C22.7407 20.1412 22.9846 20.0022 23.0532 19.7634C23.1204 19.5232 22.9846 19.2722 22.7499 19.2034L21.4446 18.8175C21.2113 18.7487 20.966 18.8877 20.8988 19.1265C20.8302 19.3667 20.966 19.6177 21.2007 19.6865ZM19.0978 21.2436C18.8578 21.2881 18.697 21.5216 18.7391 21.7685C18.7827 22.014 19.0107 22.1787 19.252 22.1341C21.0596 21.7496 22.9331 21.8386 24.6973 22.3946C24.7382 22.4067 24.7804 22.4134 24.8226 22.4134C25.0427 22.4134 25.2286 22.2475 25.2603 22.0248C25.292 21.8022 25.1588 21.5904 24.9478 21.5269C23.0506 20.9359 21.0399 20.8388 19.0978 21.2436ZM26.7792 32.7101V18.5665C29.6969 17.6827 31.7799 17.5613 36.081 18.5922L37.795 32.0369C34.1167 31.2232 29.9027 31.9033 26.7805 32.7116L26.7792 32.7101ZM27.6784 22.0882C27.7113 22.2029 27.7878 22.3 27.8906 22.358C27.9935 22.4147 28.1148 22.4282 28.2268 22.3945C30.4722 21.7185 32.3035 21.74 35.2227 22.4741C35.257 22.4822 35.2926 22.4862 35.3295 22.4862C35.5523 22.4862 35.7395 22.3162 35.7673 22.0895C35.795 21.8628 35.6526 21.651 35.435 21.5957C32.3841 20.8279 30.363 20.809 27.9791 21.5268C27.867 21.5606 27.7721 21.6388 27.7154 21.7441C27.6587 21.8493 27.6454 21.9735 27.6784 22.0882ZM27.6784 24.5912C27.7113 24.7072 27.7878 24.8044 27.8906 24.861C27.9935 24.9191 28.1148 24.9325 28.2268 24.8975C30.4722 24.2215 32.3035 24.243 35.2227 24.9757V24.9771C35.257 24.9865 35.2926 24.9906 35.3295 24.9906C35.5523 24.9906 35.7422 24.8205 35.7686 24.5925C35.7963 24.3658 35.6525 24.154 35.435 24.0987C32.3828 23.3309 30.3617 23.312 27.9777 24.0312C27.7444 24.1014 27.6098 24.3523 27.6784 24.5912ZM27.6784 27.0955C27.7113 27.2102 27.7878 27.3074 27.8906 27.364C27.9935 27.4221 28.1148 27.4355 28.2268 27.4018C30.4722 26.7258 32.3035 26.7474 35.2227 27.4814V27.4801C35.257 27.4895 35.2926 27.4936 35.3295 27.4936C35.5523 27.4936 35.7395 27.3236 35.7673 27.0969C35.795 26.8702 35.6526 26.6584 35.435 26.603C32.3841 25.8352 30.363 25.8164 27.9791 26.5342C27.867 26.5679 27.7721 26.6449 27.7154 26.7501C27.6587 26.8553 27.6454 26.9795 27.6784 27.0955ZM35.2227 29.9844C35.257 29.9925 35.2926 29.9979 35.3295 29.9966C35.5523 29.9966 35.7395 29.8266 35.7673 29.5999C35.795 29.3732 35.6526 29.1614 35.435 29.106C32.3841 28.3382 30.363 28.3194 27.9791 29.0372C27.7497 29.1114 27.6205 29.3597 27.6877 29.5958C27.7549 29.8333 27.9962 29.9696 28.2283 29.9048C30.4723 29.2288 32.3035 29.2491 35.2227 29.9844ZM16.3568 24.2701L14.9473 24.2714C15.1306 24.4711 15.3851 24.5844 15.6527 24.5844C15.919 24.5844 16.1748 24.4711 16.358 24.2714L16.3568 24.2701ZM17.3047 22.6009V22.5132H14.0007V22.6023C14.002 23.0233 14.3355 23.3647 14.7469 23.366H16.5585C16.9698 23.366 17.3047 23.0246 17.306 22.6023L17.3047 22.6009ZM13.3202 20.5135C13.6815 20.7685 13.9214 21.1666 13.9821 21.6119H17.3231C17.3837 21.1666 17.6237 20.7686 17.9849 20.5135C19.4128 19.4745 20.0206 17.6098 19.4879 15.9028C18.9553 14.1945 17.4048 13.0341 15.6526 13.0341C13.9005 13.0341 12.3499 14.1945 11.8173 15.9028C11.2834 17.6097 11.891 19.4745 13.3202 20.5135Z" fill="white"/>
</g>
</g>
<defs>
<filter id="filter0_d_508_1880" x="-25" y="-21" width="98" height="98" filterUnits="userSpaceOnUse" color-interpolation-filters="sRGB">
<feFlood flood-opacity="0" result="BackgroundImageFix"/>
<feColorMatrix in="SourceAlpha" type="matrix" values="0 0 0 0 0 0 0 0 0 0 0 0 0 0 0 0 0 0 127 0" result="hardAlpha"/>
<feOffset dy="4"/>
<feGaussianBlur stdDeviation="12.5"/>
<feComposite in2="hardAlpha" operator="out"/>
<feColorMatrix type="matrix" values="0 0 0 0 0.526604 0 0 0 0 0.483567 0 0 0 0 1 0 0 0 0.22 0"/>
<feBlend mode="normal" in2="BackgroundImageFix" result="effect1_dropShadow_508_1880"/>
<feBlend mode="normal" in="SourceGraphic" in2="effect1_dropShadow_508_1880" result="shape"/>
</filter>
<clipPath id="clip0_508_1880">
<rect width="48" height="48" fill="white"/>
</clipPath>
</defs>
</svg>
