<svg width="24" height="24" viewBox="0 0 24 24" fill="none" xmlns="http://www.w3.org/2000/svg">
<path d="M3.11125 19.5547H4.35674L4.58562 21.2968C4.79006 22.8589 6.13111 24 7.66885 24C7.80329 24 7.93884 23.9911 8.0755 23.9733L21.2981 22.2268C22.9947 21.999 24.1959 20.4313 23.9735 18.7325L22.227 5.51417C22.037 4.10089 20.917 3.01875 19.5415 2.84098C19.4038 1.25218 18.0683 0 16.4438 0H3.1111C1.39565 0 0 1.39547 0 3.1111V16.4438C0 18.1593 1.39562 19.5547 3.11125 19.5547ZM21.3447 5.63092L23.0913 18.847C23.249 20.0614 22.3924 21.1824 21.1802 21.3446L7.95875 23.0912C6.74326 23.249 5.62553 22.3935 5.46665 21.1802L5.25333 19.5536H12.8886C12.9464 19.5536 13.0041 19.5414 13.0586 19.5191C13.113 19.4969 13.1619 19.4636 13.203 19.4236L19.4261 13.2005C19.4627 13.1639 19.4894 13.1205 19.5105 13.075C19.5172 13.0616 19.5205 13.0472 19.525 13.0328C19.5383 12.995 19.5461 12.955 19.5494 12.915C19.5494 12.9061 19.555 12.8972 19.555 12.8883V3.73761C20.4849 3.90538 21.2147 4.66431 21.3447 5.63092ZM13.3328 18.0369V15.5548C13.3328 14.3293 14.3295 13.3327 15.555 13.3327H18.0371L13.3328 18.0369ZM0.888991 3.11086C0.888991 1.88536 1.88561 0.888747 3.11111 0.888747H16.4438C17.6693 0.888747 18.6659 1.88536 18.6659 3.11086V12.4436H15.5548C13.8394 12.4436 12.4437 13.8391 12.4437 15.5547V18.6658H3.11096C1.88547 18.6658 0.888849 17.6692 0.888849 16.4437L0.888991 3.11086Z" fill="white"/>
<path d="M4.00009 4.44549H15.5551C15.8006 4.44549 15.9995 4.24661 15.9995 4.00106C15.9995 3.75552 15.8006 3.55664 15.5551 3.55664H4.00009C3.75454 3.55664 3.55566 3.75552 3.55566 4.00106C3.55566 4.24661 3.75454 4.44549 4.00009 4.44549Z" fill="white"/>
<path d="M4.00009 8.00017H15.5551C15.8006 8.00017 15.9995 7.80129 15.9995 7.55575C15.9995 7.31021 15.8006 7.11133 15.5551 7.11133H4.00009C3.75454 7.11133 3.55566 7.31021 3.55566 7.55575C3.55566 7.80129 3.75454 8.00017 4.00009 8.00017Z" fill="white"/>
<path d="M4.00009 11.5549H11.4286C11.6741 11.5549 11.873 11.356 11.873 11.1104C11.873 10.8649 11.6741 10.666 11.4286 10.666H4.00009C3.75454 10.666 3.55566 10.8649 3.55566 11.1104C3.55566 11.356 3.75454 11.5549 4.00009 11.5549Z" fill="white"/>
</svg>
