<svg width="24" height="24" viewBox="0 0 24 24" fill="none" xmlns="http://www.w3.org/2000/svg">
<path d="M25.996 17.2798L24.492 6.98396C24.4802 6.90297 24.4384 6.82828 24.3762 6.77358L23.107 5.67119C23.0641 5.63332 23.0116 5.60702 22.9558 5.59335C18.9722 4.64245 17.2282 4.79918 14.6886 5.56705C12.9842 5.05267 11.6293 4.80654 9.69317 5.00007C9.6996 4.91487 9.70282 4.82757 9.70282 4.74026C9.70282 3.51375 9.05212 2.37562 7.98442 1.73721C6.91672 1.09976 5.58743 1.05347 4.47582 1.61519C3.36523 2.17794 2.63308 3.2677 2.54515 4.49222C2.45617 5.71557 3.02433 6.89579 4.04272 7.60675C4.29571 7.77611 4.4458 8.06012 4.43935 8.36096V8.93004C4.43935 9.07415 4.47365 9.21721 4.54012 9.3466L3.38128 17.28C3.36306 17.402 3.41237 17.5251 3.51206 17.6018L4.37822 18.2709L4.37929 18.2719C4.46613 18.3392 4.58083 18.3624 4.6891 18.334C6.86525 17.7691 10.5605 17.6997 13.4108 18.6611H13.4097C13.4944 18.6895 13.5877 18.6863 13.6702 18.6495L14.6897 18.2035L15.7091 18.6495C15.7906 18.6863 15.8838 18.6905 15.9685 18.6611C18.819 17.7007 22.5131 17.7691 24.6902 18.334C24.7974 18.3624 24.9121 18.3392 25 18.2719L25.8662 17.6029V17.6018C25.9659 17.5251 26.0153 17.4018 25.996 17.2798ZM22.5539 6.21273L23.8799 16.1824C20.9287 15.5587 17.5488 16.0804 15.0446 16.7021V6.18734C17.4277 5.48257 19.0239 5.39016 22.5539 6.21273ZM14.336 6.18749V16.7022C11.8319 16.0805 8.45196 15.5578 5.50074 16.1826L6.21684 10.7969C6.76891 10.7506 7.2063 10.3194 7.25023 9.77656C7.58471 9.62298 7.79909 9.29373 7.79909 8.93084V8.36072C7.79373 8.05987 7.94274 7.77586 8.1968 7.6065C8.85606 7.14474 9.33848 6.47678 9.56253 5.71312C11.1695 5.51641 12.8011 5.6784 14.3352 6.18751L14.336 6.18749ZM7.09052 8.86139V8.92977C7.08837 9.06125 6.9801 9.16749 6.8461 9.1696H5.39247C5.25847 9.16749 5.1502 9.06125 5.14806 8.92977V8.86245L7.09052 8.86139ZM6.50414 9.86491C6.43446 10.0111 6.28438 10.1047 6.11931 10.1047C5.95422 10.1047 5.80415 10.0111 5.73447 9.86491H6.50414ZM3.24418 4.74017C3.24418 3.75561 3.7673 2.84255 4.62382 2.33029C5.48035 1.81803 6.54698 1.78119 7.43783 2.23352C8.32973 2.68478 8.91611 3.5589 8.98686 4.54136C9.05761 5.52276 8.60202 6.46949 7.78408 7.03959C7.40139 7.30046 7.1516 7.71175 7.10122 8.16616H5.13734C5.08696 7.71175 4.83826 7.30047 4.45447 7.03959C3.69658 6.50942 3.24528 5.65323 3.24418 4.74017ZM13.5065 17.9593C10.49 16.9811 6.87846 17.0904 4.67973 17.6196L4.11157 17.1799L5.12782 10.227C5.22215 10.3932 5.35829 10.5331 5.52231 10.633L4.73011 16.5952C4.7151 16.7099 4.75906 16.8245 4.84803 16.9013C4.93701 16.9781 5.05921 17.0054 5.17285 16.9749C8.26239 16.1629 12.0026 16.8045 14.5957 17.4872C14.5785 17.4924 14.5614 17.4977 14.5442 17.5051L13.5065 17.9593ZM24.697 17.6196C22.4983 17.0905 18.8867 16.9821 15.8702 17.9593L14.8325 17.5059H14.8336C14.8164 17.4986 14.7993 17.4923 14.781 17.4881C17.3753 16.8065 21.1155 16.1637 24.2039 16.9758H24.205C24.3186 17.0063 24.4408 16.979 24.5298 16.9022C24.6188 16.8254 24.6627 16.7107 24.6477 16.595L23.3463 6.8071L23.8083 7.20892L25.2662 17.1797L24.697 17.6196ZM15.9591 19.6518C15.9591 19.8443 15.8004 20 15.6043 20H13.7722C13.5803 19.9947 13.427 19.8401 13.427 19.6518C13.427 19.4635 13.5803 19.31 13.7722 19.3047H15.6043C15.6975 19.3036 15.7886 19.3404 15.8551 19.4057C15.9216 19.4709 15.9591 19.5592 15.9591 19.6518ZM8.8818 7.88438C10.4394 7.57303 12.0518 7.6477 13.5729 8.10212C13.7605 8.15577 13.8677 8.34931 13.813 8.5334C13.7573 8.71748 13.5601 8.82372 13.3724 8.76903C11.9574 8.34302 10.4544 8.27465 9.00516 8.57022C8.81435 8.59862 8.63638 8.47345 8.60318 8.28726C8.56887 8.10107 8.69322 7.92329 8.88189 7.88543L8.8818 7.88438ZM13.8141 10.4594C13.7584 10.6435 13.5612 10.7487 13.3735 10.694C11.5726 10.1743 10.104 10.1901 7.76391 10.755C7.73604 10.7613 7.7071 10.7655 7.67923 10.7655C7.5002 10.7645 7.34906 10.633 7.32763 10.4594C7.30619 10.2848 7.42089 10.1218 7.59455 10.0797C10.0409 9.48851 11.6616 9.47483 13.5741 10.0271C13.7617 10.0818 13.8688 10.2743 13.8141 10.4594ZM13.8141 12.3844C13.7584 12.5684 13.5612 12.6736 13.3735 12.6189C11.5726 12.0982 10.104 12.114 7.76391 12.6799C7.73604 12.6873 7.7071 12.6905 7.67923 12.6905C7.5002 12.6894 7.34906 12.559 7.32763 12.3844C7.30619 12.2097 7.42089 12.0467 7.59455 12.0046C10.0409 11.4135 11.6616 11.3998 13.5741 11.952C13.7617 12.0067 13.8688 12.1992 13.8141 12.3844ZM13.8141 14.3093C13.7584 14.4934 13.5612 14.5986 13.3735 14.5439C11.5726 14.0242 10.104 14.04 7.76391 14.6049C7.73604 14.6122 7.7071 14.6154 7.67923 14.6154C7.5002 14.6154 7.34906 14.4839 7.32763 14.3093C7.30619 14.1347 7.42089 13.9727 7.59455 13.9306C10.0409 13.3395 11.6616 13.3258 13.5741 13.878V13.877C13.7617 13.9317 13.8689 14.1242 13.8142 14.3083L13.8141 14.3093ZM8.54837 1.01772L9.17871 0.14675C9.29234 -0.00998175 9.51319 -0.0467982 9.67291 0.0636512C9.83263 0.175151 9.87015 0.391854 9.75652 0.548577L9.12618 1.4206C9.01255 1.57733 8.79171 1.61415 8.63199 1.50265C8.47226 1.3922 8.43474 1.17444 8.54837 1.01772ZM10.2528 3.61483C10.2217 3.52752 10.2271 3.4318 10.2678 3.3487C10.3086 3.2656 10.3815 3.20249 10.4704 3.17198L11.4985 2.8196V2.81855C11.6829 2.75964 11.8801 2.85536 11.9444 3.03418C12.0077 3.213 11.9144 3.4097 11.7333 3.47597L10.7052 3.82836H10.7041C10.6666 3.84098 10.627 3.84729 10.5873 3.84834C10.4361 3.84834 10.3011 3.75472 10.2517 3.61482L10.2528 3.61483ZM10.3279 6.25613C10.3536 6.16777 10.4147 6.09308 10.4972 6.04891C10.5787 6.00367 10.6763 5.99315 10.7663 6.01945L11.8115 6.31504C11.9048 6.33819 11.983 6.39814 12.0302 6.47914C12.0774 6.56119 12.0892 6.65796 12.0634 6.74842C12.0366 6.83783 11.9745 6.91357 11.8898 6.95775C11.8051 7.00193 11.7065 7.0114 11.6153 6.98299L10.568 6.68635C10.3804 6.63376 10.2721 6.44126 10.3268 6.25612L10.3279 6.25613ZM1.96844 6.71159C2.04349 6.88936 1.95773 7.09239 1.77656 7.16496L0.769946 7.57309C0.682044 7.61201 0.582349 7.61411 0.493376 7.5794C0.405473 7.54468 0.333649 7.47526 0.297202 7.38901C0.260754 7.3017 0.261825 7.20387 0.299345 7.11762C0.337936 7.03137 0.40976 6.96405 0.498736 6.93039L1.50642 6.52331C1.68651 6.44968 1.89449 6.53488 1.96844 6.71159ZM1.32095 4.33958L0.258606 4.1008H0.259678C0.0774395 4.05136 -0.0329748 3.86938 0.00883192 3.68847C0.0506387 3.50756 0.230734 3.39078 0.417267 3.4234L1.47961 3.66217H1.47854C1.65435 3.70215 1.7712 3.86519 1.75083 4.03979C1.73046 4.21546 1.58038 4.34799 1.4003 4.34904C1.3735 4.34904 1.34668 4.34589 1.32095 4.33958ZM1.89018 0.97784C1.77011 0.83373 1.78619 0.621255 1.92877 0.497115C2.07027 0.372991 2.28682 0.380356 2.41868 0.514997L3.14334 1.31337L3.14441 1.31232C3.27413 1.45643 3.26126 1.67628 3.11547 1.80355C2.96968 1.93081 2.74562 1.9182 2.61485 1.77514L1.89018 0.97784ZM15.7651 8.53368C15.7383 8.44532 15.749 8.35065 15.7941 8.26965C15.8391 8.18866 15.9152 8.1287 16.0052 8.1024C17.9177 7.55015 19.5374 7.56383 21.9848 8.155C22.1585 8.19707 22.2721 8.36011 22.2507 8.53474C22.2292 8.7083 22.0791 8.83978 21.9001 8.84084C21.8712 8.84084 21.8433 8.83663 21.8154 8.83032C19.4753 8.26544 18.0066 8.24969 16.2058 8.76931H16.2047C16.1147 8.7956 16.0182 8.78509 15.9357 8.74091C15.8531 8.69673 15.7919 8.62203 15.7651 8.53368ZM15.7651 10.4597C15.7383 10.3703 15.749 10.2756 15.7941 10.1946C15.8391 10.1136 15.9152 10.0536 16.0052 10.0273C17.9177 9.4751 19.5374 9.48878 21.9848 10.0799C22.1585 10.122 22.2721 10.2851 22.2507 10.4597C22.2292 10.6332 22.0791 10.7647 21.9001 10.7658C21.8712 10.7658 21.8433 10.7616 21.8154 10.7553C19.4753 10.1904 18.0066 10.1746 16.2058 10.6943H16.2047C16.1147 10.7206 16.0182 10.71 15.9357 10.6669C15.8531 10.6227 15.7919 10.548 15.7651 10.4597ZM15.7651 12.3846C15.7383 12.2952 15.749 12.2005 15.7941 12.1195C15.8391 12.0386 15.9152 11.9786 16.0052 11.9523C17.9177 11.4001 19.5374 11.4137 21.9848 12.0049C22.1585 12.047 22.2721 12.21 22.2507 12.3846C22.2292 12.5593 22.0791 12.6897 21.9001 12.6907C21.8712 12.6907 21.8433 12.6876 21.8154 12.6802C19.4753 12.1153 18.0066 12.0996 16.2058 12.6192H16.2047C16.1147 12.6455 16.0182 12.636 15.9357 12.5919C15.8531 12.5477 15.7919 12.473 15.7651 12.3846ZM22.2422 14.3506C22.2036 14.5063 22.0621 14.6157 21.8992 14.6157C21.8702 14.6157 21.8413 14.6125 21.8134 14.6052C19.4733 14.0403 18.0046 14.0245 16.2038 14.5442C16.0162 14.5989 15.819 14.4937 15.7643 14.3096C15.7085 14.1255 15.8157 13.932 16.0044 13.8773C17.9168 13.325 19.5366 13.3387 21.984 13.9298V13.9309C22.0751 13.9519 22.1533 14.0087 22.2016 14.0876C22.2509 14.1665 22.2647 14.2612 22.2422 14.3506Z" fill="white"/>
</svg>
