<svg width="24" height="24" viewBox="0 0 24 24" fill="none" xmlns="http://www.w3.org/2000/svg">
<mask id="path-1-inside-1_436_10476" fill="white">
<path d="M10.1916 0.000121921C10.0107 0.000121921 9.85504 0.130436 9.82315 0.308572L9.52408 1.96139C8.51345 2.21171 7.54686 2.61391 6.65628 3.15295L5.27251 2.19388H5.27158C5.12345 2.08982 4.92189 2.10857 4.79344 2.23607L2.23692 4.79257C2.10848 4.92101 2.09067 5.12257 2.1938 5.27164L3.15288 6.65539C2.61287 7.54601 2.21161 8.51259 1.96035 9.52413L0.307515 9.8232H0.308452C0.129388 9.85601 0 10.0107 0 10.1926V13.8084C0 13.9894 0.129376 14.145 0.308452 14.1769L1.96128 14.476C2.21254 15.4866 2.61381 16.4532 3.15381 17.3437L2.19474 18.7275H2.1938C2.09067 18.8766 2.10848 19.0781 2.23692 19.2066L4.79344 21.764C4.92094 21.8915 5.12344 21.9103 5.27251 21.8062L6.65627 20.8462C7.5469 21.3862 8.51349 21.7875 9.52408 22.0387L9.82314 23.6916C9.85502 23.8697 10.0106 24 10.1916 24H13.8075C13.9884 24 14.144 23.8697 14.1769 23.6916L14.4759 22.0387C15.4866 21.7875 16.4532 21.3862 17.3437 20.8462L18.7284 21.8062V21.8072C18.8775 21.9103 19.0791 21.8915 19.2066 21.764L21.7631 19.2066C21.8915 19.0781 21.9093 18.8766 21.8062 18.7275L20.8471 17.3437C21.3862 16.4531 21.7884 15.4865 22.0387 14.476L23.6915 14.1769C23.8706 14.145 24 13.9894 24 13.8075V10.1916V10.1926C24 10.0107 23.8706 9.85603 23.6915 9.8232L22.0406 9.52413C21.7912 8.51161 21.39 7.54318 20.85 6.65059L21.8053 5.27152H21.8062C21.9094 5.12245 21.8915 4.9209 21.7631 4.79245L19.2066 2.23595C19.0781 2.10845 18.8766 2.0897 18.7284 2.19282L17.3503 3.14815C16.4578 2.60908 15.4893 2.20782 14.4767 1.95846L14.1767 0.30845C14.1439 0.130323 13.9883 0 13.8073 0L10.1916 0.000121921ZM10.5047 0.750127H13.4945L13.7813 2.33265C13.8085 2.48171 13.922 2.59984 14.0691 2.63172C15.167 2.87359 16.2132 3.30672 17.1611 3.91141L17.162 3.91234C17.2895 3.99297 17.4527 3.99016 17.5764 3.90391L18.8974 2.98796L21.0105 5.10204L20.0946 6.42299H20.0955C20.0093 6.54674 20.0065 6.7108 20.0871 6.83831C20.6918 7.78613 21.1249 8.83239 21.3677 9.93025C21.4005 10.0774 21.5187 10.1909 21.6677 10.2181L23.2503 10.5049V13.4946L21.6659 13.7815C21.5168 13.8078 21.3987 13.9212 21.3659 14.0684C21.1221 15.1643 20.688 16.2087 20.0833 17.1546C20.0018 17.2821 20.0046 17.4461 20.0908 17.5708L21.0105 18.8974L18.8974 21.0115L17.5699 20.0908C17.4452 20.0046 17.2811 20.0018 17.1536 20.0843C16.2076 20.689 15.1632 21.124 14.0674 21.3677V21.3668C13.9202 21.3996 13.8068 21.5177 13.7805 21.6668L13.4936 23.2503H10.5039L10.217 21.6668C10.1899 21.5177 10.0774 21.3996 9.92923 21.3668C8.83328 21.1231 7.78888 20.689 6.84302 20.0833L6.84396 20.0843C6.71552 20.0027 6.55241 20.0055 6.4277 20.0927L5.10113 21.0133L2.98797 18.8993L3.90766 17.5727V17.5718C3.99298 17.4471 3.99579 17.284 3.91423 17.1564C3.30954 16.2105 2.87453 15.1661 2.63076 14.0703C2.59889 13.9231 2.48076 13.8096 2.33169 13.7825L0.748222 13.4956V10.5059L2.33169 10.219V10.2199C2.48076 10.1928 2.59889 10.0793 2.63076 9.93213C2.87451 8.83618 3.30858 7.79086 3.91423 6.84499C3.99579 6.71842 3.99298 6.55437 3.90766 6.42966L2.98797 5.1031L5.10113 2.98996L6.4277 3.90965V3.90871C6.55239 3.99496 6.71645 3.99777 6.84396 3.91621C7.78991 3.31152 8.83431 2.87746 9.93017 2.63369H9.92923C10.0774 2.60087 10.1898 2.48275 10.217 2.33462L10.5047 0.750127ZM12.0001 6.50465C8.97003 6.50465 6.50519 8.96947 6.50519 11.9995C6.50519 15.0295 8.97003 17.4943 12.0001 17.4943C15.0301 17.4943 17.495 15.0295 17.495 11.9995C17.495 8.96947 15.0301 6.50465 12.0001 6.50465ZM12.0001 7.25465C14.6252 7.25465 16.7449 9.37435 16.7449 11.9995C16.7449 14.6246 14.6252 16.7443 12.0001 16.7443C9.37491 16.7443 7.2552 14.6246 7.2552 11.9995C7.2552 9.37435 9.37491 7.25465 12.0001 7.25465Z"/>
</mask>
<path d="M10.1916 0.000121921C10.0107 0.000121921 9.85504 0.130436 9.82315 0.308572L9.52408 1.96139C8.51345 2.21171 7.54686 2.61391 6.65628 3.15295L5.27251 2.19388H5.27158C5.12345 2.08982 4.92189 2.10857 4.79344 2.23607L2.23692 4.79257C2.10848 4.92101 2.09067 5.12257 2.1938 5.27164L3.15288 6.65539C2.61287 7.54601 2.21161 8.51259 1.96035 9.52413L0.307515 9.8232H0.308452C0.129388 9.85601 0 10.0107 0 10.1926V13.8084C0 13.9894 0.129376 14.145 0.308452 14.1769L1.96128 14.476C2.21254 15.4866 2.61381 16.4532 3.15381 17.3437L2.19474 18.7275H2.1938C2.09067 18.8766 2.10848 19.0781 2.23692 19.2066L4.79344 21.764C4.92094 21.8915 5.12344 21.9103 5.27251 21.8062L6.65627 20.8462C7.5469 21.3862 8.51349 21.7875 9.52408 22.0387L9.82314 23.6916C9.85502 23.8697 10.0106 24 10.1916 24H13.8075C13.9884 24 14.144 23.8697 14.1769 23.6916L14.4759 22.0387C15.4866 21.7875 16.4532 21.3862 17.3437 20.8462L18.7284 21.8062V21.8072C18.8775 21.9103 19.0791 21.8915 19.2066 21.764L21.7631 19.2066C21.8915 19.0781 21.9093 18.8766 21.8062 18.7275L20.8471 17.3437C21.3862 16.4531 21.7884 15.4865 22.0387 14.476L23.6915 14.1769C23.8706 14.145 24 13.9894 24 13.8075V10.1916V10.1926C24 10.0107 23.8706 9.85603 23.6915 9.8232L22.0406 9.52413C21.7912 8.51161 21.39 7.54318 20.85 6.65059L21.8053 5.27152H21.8062C21.9094 5.12245 21.8915 4.9209 21.7631 4.79245L19.2066 2.23595C19.0781 2.10845 18.8766 2.0897 18.7284 2.19282L17.3503 3.14815C16.4578 2.60908 15.4893 2.20782 14.4767 1.95846L14.1767 0.30845C14.1439 0.130323 13.9883 0 13.8073 0L10.1916 0.000121921ZM10.5047 0.750127H13.4945L13.7813 2.33265C13.8085 2.48171 13.922 2.59984 14.0691 2.63172C15.167 2.87359 16.2132 3.30672 17.1611 3.91141L17.162 3.91234C17.2895 3.99297 17.4527 3.99016 17.5764 3.90391L18.8974 2.98796L21.0105 5.10204L20.0946 6.42299H20.0955C20.0093 6.54674 20.0065 6.7108 20.0871 6.83831C20.6918 7.78613 21.1249 8.83239 21.3677 9.93025C21.4005 10.0774 21.5187 10.1909 21.6677 10.2181L23.2503 10.5049V13.4946L21.6659 13.7815C21.5168 13.8078 21.3987 13.9212 21.3659 14.0684C21.1221 15.1643 20.688 16.2087 20.0833 17.1546C20.0018 17.2821 20.0046 17.4461 20.0908 17.5708L21.0105 18.8974L18.8974 21.0115L17.5699 20.0908C17.4452 20.0046 17.2811 20.0018 17.1536 20.0843C16.2076 20.689 15.1632 21.124 14.0674 21.3677V21.3668C13.9202 21.3996 13.8068 21.5177 13.7805 21.6668L13.4936 23.2503H10.5039L10.217 21.6668C10.1899 21.5177 10.0774 21.3996 9.92923 21.3668C8.83328 21.1231 7.78888 20.689 6.84302 20.0833L6.84396 20.0843C6.71552 20.0027 6.55241 20.0055 6.4277 20.0927L5.10113 21.0133L2.98797 18.8993L3.90766 17.5727V17.5718C3.99298 17.4471 3.99579 17.284 3.91423 17.1564C3.30954 16.2105 2.87453 15.1661 2.63076 14.0703C2.59889 13.9231 2.48076 13.8096 2.33169 13.7825L0.748222 13.4956V10.5059L2.33169 10.219V10.2199C2.48076 10.1928 2.59889 10.0793 2.63076 9.93213C2.87451 8.83618 3.30858 7.79086 3.91423 6.84499C3.99579 6.71842 3.99298 6.55437 3.90766 6.42966L2.98797 5.1031L5.10113 2.98996L6.4277 3.90965V3.90871C6.55239 3.99496 6.71645 3.99777 6.84396 3.91621C7.78991 3.31152 8.83431 2.87746 9.93017 2.63369H9.92923C10.0774 2.60087 10.1898 2.48275 10.217 2.33462L10.5047 0.750127ZM12.0001 6.50465C8.97003 6.50465 6.50519 8.96947 6.50519 11.9995C6.50519 15.0295 8.97003 17.4943 12.0001 17.4943C15.0301 17.4943 17.495 15.0295 17.495 11.9995C17.495 8.96947 15.0301 6.50465 12.0001 6.50465ZM12.0001 7.25465C14.6252 7.25465 16.7449 9.37435 16.7449 11.9995C16.7449 14.6246 14.6252 16.7443 12.0001 16.7443C9.37491 16.7443 7.2552 14.6246 7.2552 11.9995C7.2552 9.37435 9.37491 7.25465 12.0001 7.25465Z" fill="white" stroke="white" stroke-width="3" mask="url(#path-1-inside-1_436_10476)"/>
</svg>
