<svg width="24" height="25" viewBox="0 0 24 25" fill="none" xmlns="http://www.w3.org/2000/svg">
<path d="M18.8294 0.413774C19.1073 -0.137925 19.8791 -0.137925 20.157 0.413774C20.7655 1.7556 21.6282 2.88488 22.8703 3.65593L23.6632 4.14907C24.1123 4.47193 24.1123 5.16532 23.6632 5.48954L22.8703 5.98269C21.7099 6.70195 20.7918 7.77132 20.236 9.04364C20.1781 9.17986 20.1241 9.31064 20.02 9.41825V22.2698C20.02 24.4467 17.6756 25.7449 15.925 24.538L10.8872 21.0629C10.3564 20.6978 9.66362 20.6978 9.13283 21.0629L4.09504 24.538C2.34461 25.7449 0 24.4467 0 22.2698V4.54712C0 3.0432 1.17881 1.82263 2.63421 1.82263H17.3858C17.5992 1.82263 17.8059 1.84851 18.0035 1.89891C18.3407 1.43576 18.591 0.935517 18.8294 0.413774ZM2.63432 2.91215C1.76109 2.91215 1.05379 3.64369 1.05379 4.54684V22.2696C1.05379 23.576 2.46047 24.3538 3.51152 23.6304L8.54931 20.1567C9.43309 19.5464 10.5869 19.5464 11.4707 20.1567L16.5085 23.6304C17.5595 24.3538 18.9662 23.5759 18.9662 22.2696V9.41797C18.8621 9.31172 18.8081 9.17958 18.7502 9.04336C18.1931 7.76692 17.2658 6.71392 16.116 5.98241L15.3705 5.52061C14.8582 5.20321 14.8582 4.4349 15.3705 4.11751L16.116 3.65572C16.4663 3.43776 16.7943 3.18984 17.0972 2.91194L2.63432 2.91215ZM14.7519 14.3548C15.0429 14.3548 15.2787 14.5987 15.2787 14.8997C15.2787 15.2008 15.0429 15.4446 14.7519 15.4446H10.5371C10.246 15.4446 10.0103 15.2008 10.0103 14.8997C10.0103 14.5987 10.246 14.3548 10.5371 14.3548H14.7519ZM5.15136 8.25616C5.35815 8.03412 5.68083 8.04638 5.89683 8.23981L8.85901 11.1768C9.17644 11.5106 9.17644 12.0228 8.85901 12.3565L5.89683 15.2935C5.68609 15.502 5.35286 15.4938 5.15136 15.2772C4.94984 15.0592 4.95774 14.7146 5.16717 14.5062L7.93176 11.7667L5.16717 9.0272C4.97092 8.81196 4.94457 8.47956 5.15136 8.25616ZM19.4933 1.50082C18.7531 2.94343 17.6243 3.99099 16.2888 4.81924C17.6256 5.64748 18.7531 6.69641 19.4933 8.13766C20.2335 6.69641 21.3609 5.64748 22.6978 4.81924C21.3623 3.99099 20.2335 2.94343 19.4933 1.50082Z" fill="white"/>
</svg>
