<svg width="51" height="56" viewBox="0 0 51 56" fill="none" xmlns="http://www.w3.org/2000/svg">
<g filter="url(#filter0_d_436_10461)">
<path d="M22.9194 9.07484H28.2235C28.9238 9.07484 29.56 9.33381 30.0209 9.75064C30.4819 10.1675 30.7682 10.7428 30.7682 11.3762V17.6C30.7682 18.2334 30.4819 18.8087 30.0209 19.2256C29.56 19.6424 28.9238 19.9014 28.2235 19.9014H22.9194C22.219 19.9014 21.5828 19.6424 21.1219 19.2256C20.661 18.8087 20.3746 18.2334 20.3746 17.6V11.3762C20.3746 10.7428 20.661 10.1675 21.1219 9.75064C21.5828 9.33381 22.219 9.07484 22.9194 9.07484ZM10.778 14.3664H16.0821C16.4913 14.3664 16.8625 14.2148 17.133 13.9708C17.4028 13.7268 17.5704 13.3905 17.5704 13.0204V11.3756C17.5704 11.0055 17.4028 10.6698 17.133 10.4252C16.8632 10.1812 16.4913 10.0296 16.0821 10.0296H10.778C10.3695 10.0296 9.99762 10.1812 9.72783 10.4252C9.45804 10.6692 9.29037 11.0055 9.29037 11.3756V13.0204C9.29037 13.3905 9.45804 13.7262 9.72783 13.9708C9.99762 14.2148 10.3695 14.3664 10.778 14.3664ZM16.0821 15.3218H10.778C10.0777 15.3218 9.44148 15.0628 8.98055 14.646C8.51963 14.2291 8.23328 13.6538 8.23328 13.0204V11.3756C8.23328 10.7422 8.51963 10.1669 8.98055 9.75002C9.44148 9.33318 10.0777 9.07422 10.778 9.07422H16.0821C16.7825 9.07422 17.4186 9.33318 17.8796 9.75002C18.3405 10.1669 18.6268 10.7422 18.6268 11.3756V13.0204C18.6268 13.6538 18.3405 14.2291 17.8796 14.646C17.4186 15.0628 16.7825 15.3218 16.0821 15.3218ZM10.778 26.7692H16.0821C16.4913 26.7692 16.8625 26.6175 17.133 26.3735C17.4028 26.1296 17.5704 25.7932 17.5704 25.4238V19.2C17.5704 18.8306 17.4028 18.4942 17.133 18.2502C16.8632 18.0062 16.4913 17.8546 16.0821 17.8546H10.778C10.3695 17.8546 9.99762 18.0062 9.72783 18.2502C9.45804 18.4942 9.29037 18.8306 9.29037 19.2V25.4238C9.29037 25.7932 9.45804 26.1296 9.72783 26.3735C9.99762 26.6175 10.3695 26.7692 10.778 26.7692ZM16.0821 27.7245H10.778C10.0777 27.7245 9.44148 27.4656 8.98055 27.0487C8.51963 26.6319 8.23328 26.0565 8.23328 25.4232V19.1993C8.23328 18.566 8.51963 17.9906 8.98055 17.5738C9.44148 17.157 10.0777 16.898 10.778 16.898H16.0821C16.7825 16.898 17.4186 17.157 17.8796 17.5738C18.3405 17.9906 18.6268 18.566 18.6268 19.1993V25.4232C18.6268 26.0565 18.3405 26.6319 17.8796 27.0487C17.4186 27.4656 16.7825 27.7245 16.0821 27.7245ZM22.9201 21.4776H28.2235C28.9238 21.4776 29.56 21.7366 30.0209 22.1534C30.4819 22.5702 30.7682 23.1456 30.7682 23.7789V25.4238C30.7682 26.0572 30.4819 26.6325 30.0209 27.0493C29.56 27.4662 28.9238 27.7251 28.2235 27.7251H22.9201C22.2197 27.7251 21.5835 27.4662 21.1226 27.0493C20.6617 26.6325 20.3753 26.0572 20.3753 25.4238V23.7789C20.3753 23.1456 20.6617 22.5702 21.1226 22.1534C21.5835 21.7366 22.2197 21.4776 22.9201 21.4776ZM28.2235 22.4329H22.9201C22.5109 22.4329 22.1397 22.5846 21.8692 22.8286C21.5994 23.0726 21.4317 23.4089 21.4317 23.7789V25.4238C21.4317 25.7938 21.5994 26.1296 21.8692 26.3742C22.139 26.6182 22.5109 26.7698 22.9201 26.7698H28.2235C28.6326 26.7698 29.0039 26.6182 29.2743 26.3742C29.5441 26.1302 29.7118 25.7938 29.7118 25.4238V23.7789C29.7118 23.4089 29.5441 23.0732 29.2743 22.8286C29.0046 22.5846 28.6326 22.4329 28.2235 22.4329ZM28.2235 10.0302H22.9194C22.5109 10.0302 22.139 10.1818 21.8692 10.4258C21.5994 10.6698 21.4317 11.0061 21.4317 11.3756V17.5994C21.4317 17.9688 21.5994 18.3051 21.8692 18.5491C22.139 18.7931 22.5109 18.9447 22.9194 18.9447H28.2235C28.632 18.9447 29.0039 18.7931 29.2737 18.5491C29.5434 18.3051 29.7111 17.9688 29.7111 17.5994V11.3756C29.7111 11.0061 29.5434 10.6698 29.2737 10.4258C29.0039 10.1818 28.632 10.0302 28.2235 10.0302Z" fill="white"/>
</g>
<defs>
<filter id="filter0_d_436_10461" x="-8" y="-6" width="67" height="70" filterUnits="userSpaceOnUse" color-interpolation-filters="sRGB">
<feFlood flood-opacity="0" result="BackgroundImageFix"/>
<feColorMatrix in="SourceAlpha" type="matrix" values="0 0 0 0 0 0 0 0 0 0 0 0 0 0 0 0 0 0 127 0" result="hardAlpha"/>
<feOffset dx="6" dy="8"/>
<feGaussianBlur stdDeviation="7"/>
<feComposite in2="hardAlpha" operator="out"/>
<feColorMatrix type="matrix" values="0 0 0 0 0.996078 0 0 0 0 0.415686 0 0 0 0 0.286274 0 0 0 0.24 0"/>
<feBlend mode="normal" in2="BackgroundImageFix" result="effect1_dropShadow_436_10461"/>
<feBlend mode="normal" in="SourceGraphic" in2="effect1_dropShadow_436_10461" result="shape"/>
</filter>
</defs>
</svg>
