<svg width="180" height="40" viewBox="0 0 180 40" fill="none" xmlns="http://www.w3.org/2000/svg">
  <!-- Logo Icon -->
  <g transform="translate(0, 0)">
    <path d="M29 8.58193C20.2685 21.2343 23.6987 30.5995 26.5053 33.7006C15.2788 24.7695 19.3331 9.51225 22.7635 3C26.0066 4.24043 28.2725 7.23813 29 8.58193Z" fill="#6244FF"/>
    <path d="M9.04334 17.8851C12.2865 30.2894 21.8284 34.8377 26.194 35.5612C11.9738 38.5383 2.80623 25.6378 0 18.8155C4.73996 17.0789 8.00388 17.4717 9.04334 17.8851Z" fill="#6244FF"/>
    <path d="M17.7408 11.4112C15.745 25.5521 22.1065 32.6018 25.5368 34.3591C11.8153 31.134 8.80157 15.4426 9.00986 8C13.9993 8.49617 16.9094 10.4809 17.7408 11.4112Z" fill="#FFAE2D"/>
  </g>
  
  <!-- Text "ITeachEd" -->
  <g transform="translate(50, 0)">
    <!-- I -->
    <path d="M0 8h4v24h-4V8z" fill="white"/>
    
    <!-- T -->
    <path d="M8 8h16v4h-6v20h-4V12h-6V8z" fill="white"/>
    
    <!-- e -->
    <path d="M28 18c0-3.3 2.7-6 6-6s6 2.7 6 6v2h-8c0 1.1 0.9 2 2 2h6v4h-6c-3.3 0-6-2.7-6-6v-2zm8-2c0-1.1-0.9-2-2-2s-2 0.9-2 2h4z" fill="white"/>
    
    <!-- a -->
    <path d="M44 18c0-3.3 2.7-6 6-6s6 2.7 6 6v14h-4v-2c-1 1.3-2.6 2-4 2-2.2 0-4-1.8-4-4s1.8-4 4-4h4v-6c0-1.1-0.9-2-2-2s-2 0.9-2 2h-4v0zm8 10v-2h-4c-1.1 0-2 0.9-2 2s0.9 2 2 2c1.1 0 2-0.9 2-2z" fill="white"/>
    
    <!-- c -->
    <path d="M60 18c0-3.3 2.7-6 6-6s6 2.7 6 6h-4c0-1.1-0.9-2-2-2s-2 0.9-2 2v8c0 1.1 0.9 2 2 2s2-0.9 2-2h4c0 3.3-2.7 6-6 6s-6-2.7-6-6v-8z" fill="white"/>
    
    <!-- h -->
    <path d="M76 8h4v10c1-1.3 2.6-2 4-2 2.2 0 4 1.8 4 4v12h-4V20c0-1.1-0.9-2-2-2s-2 0.9-2 2v12h-4V8z" fill="white"/>
    
    <!-- E -->
    <path d="M92 8h12v4h-8v6h6v4h-6v6h8v4h-12V8z" fill="white"/>
    
    <!-- d -->
    <path d="M108 8h4v8c1-1.3 2.6-2 4-2 2.2 0 4 1.8 4 4v8c0 3.3-2.7 6-6 6s-6-2.7-6-6V8zm8 18v-8c0-1.1-0.9-2-2-2s-2 0.9-2 2v8c0 1.1 0.9 2 2 2s2-0.9 2-2z" fill="white"/>
  </g>
</svg>