<svg width="43" height="40" viewBox="0 0 43 40" fill="none" xmlns="http://www.w3.org/2000/svg">
<path d="M29 8.58193C20.2685 21.2343 23.6987 30.5995 26.5053 33.7006C15.2788 24.7695 19.3331 9.51225 22.7635 3C26.0066 4.24043 28.2725 7.23813 29 8.58193Z" fill="#6244FF"/>
<path d="M9.04334 17.8851C12.2865 30.2894 21.8284 34.8377 26.194 35.5612C11.9738 38.5383 2.80623 25.6378 0 18.8155C4.73996 17.0789 8.00388 17.4717 9.04334 17.8851Z" fill="#6244FF"/>
<path d="M17.7408 11.4112C15.745 25.5521 22.1065 32.6018 25.5368 34.3591C11.8153 31.134 8.80157 15.4426 9.00986 8C13.9993 8.49617 16.9094 10.4809 17.7408 11.4112Z" fill="#FFAE2D"/>
</svg>