<svg width="168" height="40" viewBox="0 0 168 40" fill="none" xmlns="http://www.w3.org/2000/svg">
<path d="M29 8.58193C20.2685 21.2343 23.6987 30.5995 26.5053 33.7006C15.2788 24.7695 19.3331 9.51225 22.7635 3C26.0066 4.24043 28.2725 7.23813 29 8.58193Z" fill="#6244FF"/>
<path d="M9.04334 17.8851C12.2865 30.2894 21.8284 34.8377 26.194 35.5612C11.9738 38.5383 2.80623 25.6378 0 18.8155C4.73996 17.0789 8.00388 17.4717 9.04334 17.8851Z" fill="#6244FF"/>
<path d="M17.7408 11.4112C15.745 25.5521 22.1065 32.6018 25.5368 34.3591C11.8153 31.134 8.80157 15.4426 9.00986 8C13.9993 8.49617 16.9094 10.4809 17.7408 11.4112Z" fill="#FFAE2D"/>
<path fill-rule="evenodd" clip-rule="evenodd" d="M65.7344 14.1641C66.4323 14.1641 67.1146 14.2474 67.7812 14.4141C68.4479 14.5807 69.0781 14.8203 69.6719 15.1328C70.276 15.4453 70.8385 15.8307 71.3594 16.2891C71.8802 16.737 72.3385 17.2422 72.7344 17.8047L64.7344 27.4453C64.901 27.4974 65.0677 27.5339 65.2344 27.5547C65.401 27.5651 65.5677 27.5703 65.7344 27.5703C66.151 27.5703 66.5521 27.513 66.9375 27.3984C67.3229 27.2839 67.6823 27.1224 68.0156 26.9141C68.3594 26.6953 68.6615 26.4349 68.9219 26.1328C69.1927 25.8203 69.4115 25.4766 69.5781 25.1016L72.7031 28.2422C72.3073 28.8047 71.849 29.3099 71.3281 29.7578C70.8177 30.2057 70.2604 30.5859 69.6562 30.8984C69.0625 31.2109 68.4323 31.4453 67.7656 31.6016C67.1094 31.7682 66.4323 31.8516 65.7344 31.8516C64.5573 31.8516 63.4479 31.6328 62.4062 31.1953C61.375 30.7578 60.4688 30.1484 59.6875 29.3672C58.9167 28.5859 58.3073 27.6589 57.8594 26.5859C57.4115 25.5026 57.1875 24.3151 57.1875 23.0234C57.1875 21.7005 57.4115 20.4922 57.8594 19.3984C58.3073 18.3047 58.9167 17.3724 59.6875 16.6016C60.4688 15.8307 61.375 15.2318 62.4062 14.8047C63.4479 14.3776 64.5573 14.1641 65.7344 14.1641ZM65.7344 18.4766C65.151 18.4766 64.599 18.5859 64.0781 18.8047C63.5677 19.013 63.1198 19.3151 62.7344 19.7109C62.3594 20.1068 62.0625 20.5859 61.8438 21.1484C61.625 21.7005 61.5156 22.3255 61.5156 23.0234C61.5156 23.1797 61.5208 23.3568 61.5312 23.5547C61.5521 23.7526 61.5781 23.9557 61.6094 24.1641C61.651 24.362 61.6979 24.5547 61.75 24.7422C61.8021 24.9297 61.8698 25.0964 61.9531 25.2422L66.9219 18.6484C66.724 18.5755 66.526 18.5286 66.3281 18.5078C66.1406 18.487 65.9427 18.4766 65.7344 18.4766Z" fill="white"/>
<path fill-rule="evenodd" clip-rule="evenodd" d="M82.4219 14.1641C82.9635 14.1641 83.5 14.2318 84.0312 14.3672C84.5625 14.5026 85.0781 14.6901 85.5781 14.9297C86.0781 15.1693 86.5521 15.4505 87 15.7734C87.4583 16.0964 87.8854 16.4453 88.2812 16.8203L89.9375 14.8359H90.9688V31.5391H89.9375L88.2812 29.2422C87.875 29.6068 87.4427 29.9505 86.9844 30.2734C86.5365 30.5859 86.0625 30.862 85.5625 31.1016C85.0625 31.3307 84.5469 31.513 84.0156 31.6484C83.4948 31.7839 82.9635 31.8516 82.4219 31.8516C81.2448 31.8516 80.1354 31.6536 79.0938 31.2578C78.0625 30.862 77.1562 30.2891 76.375 29.5391C75.6042 28.7786 74.9948 27.8516 74.5469 26.7578C74.099 25.6641 73.875 24.4193 73.875 23.0234C73.875 21.7214 74.099 20.5286 74.5469 19.4453C74.9948 18.3516 75.6042 17.4141 76.375 16.6328C77.1562 15.8516 78.0625 15.2474 79.0938 14.8203C80.1354 14.3828 81.2448 14.1641 82.4219 14.1641ZM82.4219 18.4766C81.8385 18.4766 81.2865 18.5755 80.7656 18.7734C80.2552 18.9714 79.8073 19.263 79.4219 19.6484C79.0469 20.0339 78.75 20.513 78.5312 21.0859C78.3125 21.6484 78.2031 22.2943 78.2031 23.0234C78.2031 23.7526 78.3125 24.4036 78.5312 24.9766C78.75 25.5391 79.0469 26.013 79.4219 26.3984C79.8073 26.7839 80.2552 27.0755 80.7656 27.2734C81.2865 27.4714 81.8385 27.5703 82.4219 27.5703C83.0052 27.5703 83.5521 27.4453 84.0625 27.1953C84.5833 26.9349 85.0365 26.5964 85.4219 26.1797C85.8073 25.7526 86.1094 25.2682 86.3281 24.7266C86.5573 24.1745 86.6719 23.6068 86.6719 23.0234C86.6719 22.4401 86.5573 21.8776 86.3281 21.3359C86.1094 20.7839 85.8073 20.2995 85.4219 19.8828C85.0365 19.4557 84.5833 19.1172 84.0625 18.8672C83.5521 18.6068 83.0052 18.4766 82.4219 18.4766Z" fill="white"/>
<path d="M101.859 14.1641C102.557 14.1641 103.24 14.2526 103.906 14.4297C104.583 14.6068 105.224 14.8672 105.828 15.2109C106.443 15.5443 107.005 15.9557 107.516 16.4453C108.036 16.9349 108.484 17.4974 108.859 18.1328L105.734 21.2734C105.578 20.8359 105.365 20.4453 105.094 20.1016C104.823 19.7474 104.516 19.4505 104.172 19.2109C103.839 18.9714 103.474 18.7891 103.078 18.6641C102.682 18.5391 102.276 18.4766 101.859 18.4766C101.276 18.4766 100.724 18.5964 100.203 18.8359C99.6927 19.0755 99.2448 19.4141 98.8594 19.8516C98.4844 20.2786 98.1875 20.7891 97.9688 21.3828C97.75 21.9766 97.6406 22.6328 97.6406 23.3516C97.6406 23.9349 97.75 24.4818 97.9688 24.9922C98.1875 25.5026 98.4844 25.9505 98.8594 26.3359C99.2448 26.7214 99.6927 27.0234 100.203 27.2422C100.724 27.4609 101.276 27.5703 101.859 27.5703C102.276 27.5703 102.677 27.513 103.062 27.3984C103.448 27.2839 103.807 27.1224 104.141 26.9141C104.484 26.6953 104.786 26.4349 105.047 26.1328C105.318 25.8203 105.536 25.4766 105.703 25.1016L108.828 28.2422C108.432 28.8047 107.974 29.3099 107.453 29.7578C106.943 30.2057 106.385 30.5859 105.781 30.8984C105.188 31.2109 104.557 31.4453 103.891 31.6016C103.234 31.7682 102.557 31.8516 101.859 31.8516C100.682 31.8516 99.5729 31.6328 98.5312 31.1953C97.5 30.7474 96.5938 30.138 95.8125 29.3672C95.0417 28.5964 94.4323 27.6953 93.9844 26.6641C93.5365 25.6328 93.3125 24.5286 93.3125 23.3516C93.3125 22.0703 93.5365 20.8724 93.9844 19.7578C94.4323 18.6432 95.0417 17.6745 95.8125 16.8516C96.5938 16.0182 97.5 15.362 98.5312 14.8828C99.5729 14.4036 100.682 14.1641 101.859 14.1641Z" fill="white"/>
<path fill-rule="evenodd" clip-rule="evenodd" d="M163.156 31.5391H162.125L160.469 29.2422C160.062 29.6068 159.63 29.9505 159.172 30.2734C158.724 30.5859 158.25 30.862 157.75 31.1016C157.25 31.3307 156.734 31.513 156.203 31.6484C155.682 31.7839 155.151 31.8516 154.609 31.8516C153.432 31.8516 152.323 31.6328 151.281 31.1953C150.25 30.7474 149.344 30.1328 148.562 29.3516C147.792 28.5599 147.182 27.6276 146.734 26.5547C146.286 25.4714 146.062 24.2943 146.062 23.0234C146.062 21.763 146.286 20.5911 146.734 19.5078C147.182 18.4245 147.792 17.487 148.562 16.6953C149.344 15.9036 150.25 15.2839 151.281 14.8359C152.323 14.388 153.432 14.1641 154.609 14.1641C154.984 14.1641 155.37 14.1953 155.766 14.2578C156.172 14.3203 156.562 14.4245 156.938 14.5703C157.323 14.7057 157.682 14.888 158.016 15.1172C158.349 15.3464 158.63 15.6276 158.859 15.9609V8.14844H163.156V31.5391ZM154.609 18.4766C154.026 18.4766 153.474 18.5807 152.953 18.7891C152.443 18.9974 151.995 19.2995 151.609 19.6953C151.234 20.0807 150.938 20.5547 150.719 21.1172C150.5 21.6797 150.391 22.3151 150.391 23.0234C150.391 23.638 150.5 24.2214 150.719 24.7734C150.938 25.3255 151.234 25.8099 151.609 26.2266C151.995 26.6432 152.443 26.9714 152.953 27.2109C153.474 27.4505 154.026 27.5703 154.609 27.5703C155.193 27.5703 155.74 27.4453 156.25 27.1953C156.771 26.9349 157.224 26.5964 157.609 26.1797C157.995 25.7526 158.297 25.2682 158.516 24.7266C158.745 24.1745 158.859 23.6068 158.859 23.0234C158.859 22.4401 158.745 21.8776 158.516 21.3359C158.297 20.7839 157.995 20.2995 157.609 19.8828C157.224 19.4557 156.771 19.1172 156.25 18.8672C155.74 18.6068 155.193 18.4766 154.609 18.4766Z" fill="white"/>
<path d="M38.4844 31.5391H34V9.13281H38.4844V31.5391Z" fill="white"/>
<path d="M58.7812 13.6172H52.0625V31.5391H47.5938V13.6172H40.8594V9.13281H58.7812V13.6172Z" fill="white"/>
<path d="M115.219 15.5391C115.729 15.1536 116.255 14.8828 116.797 14.7266C117.339 14.5599 117.891 14.4766 118.453 14.4766C119.484 14.4766 120.453 14.6745 121.359 15.0703C122.266 15.4557 123.052 15.9922 123.719 16.6797C124.396 17.3568 124.927 18.1536 125.312 19.0703C125.708 19.9766 125.906 20.9453 125.906 21.9766V31.5391H121.609V21.9766H121.641C121.641 21.5391 121.557 21.1276 121.391 20.7422C121.224 20.3464 120.995 20.0026 120.703 19.7109C120.411 19.4193 120.073 19.1901 119.688 19.0234C119.302 18.8568 118.891 18.7734 118.453 18.7734C118.005 18.7734 117.583 18.8568 117.188 19.0234C116.792 19.1901 116.448 19.4193 116.156 19.7109C115.865 20.0026 115.635 20.3464 115.469 20.7422C115.302 21.1276 115.219 21.5391 115.219 21.9766V31.5391H110.953V8.14844H115.219V15.5391Z" fill="white"/>
<path d="M144.766 13.6172H133.891V18.1016H141.25V22.5859H133.891V27.0547H144.766V31.5391H129.406V9.13281H144.766V13.6172Z" fill="white"/>
</svg>
